<?xml version="1.0" encoding="UTF-8" standalone="no"?>
<!DOCTYPE svg PUBLIC "-//W3C//DTD SVG 1.1//EN"
 "http://www.w3.org/Graphics/SVG/1.1/DTD/svg11.dtd">
<!-- Generated by graphviz version 2.38.0 (20140413.2041)
 -->
<!-- Title: DoubleQuorum Pages: 1 -->
<svg width="178pt" height="149pt"
 viewBox="0.00 0.00 178.00 149.00" xmlns="http://www.w3.org/2000/svg" xmlns:xlink="http://www.w3.org/1999/xlink">
<g id="graph0" class="graph" transform="scale(1 1) rotate(0) translate(4 145)">
<title>DoubleQuorum</title>
<!-- Node1 -->
<g id="node1" class="node"><title>Node1</title>
<ellipse fill="none" stroke="black" cx="37.3314" cy="-38.1556" rx="27" ry="18"/>
<text text-anchor="middle" x="37.3314" y="-33.9556" font-family="Helvetica,sans-Serif" font-size="14.00">A</text>
</g>
<!-- Node2 -->
<g id="node2" class="node"><title>Node2</title>
<ellipse fill="none" stroke="black" cx="142.964" cy="-76.4852" rx="27" ry="18"/>
<text text-anchor="middle" x="142.964" y="-72.2852" font-family="Helvetica,sans-Serif" font-size="14.00">B</text>
</g>
<!-- Node1&#45;&#45;Node2 -->
<g id="edge1" class="edge"><title>Node1&#45;&#45;Node2</title>
<path fill="none" stroke="blue" stroke-width="5" d="M61.3011,-46.8531C78.5885,-53.126 101.824,-61.557 119.089,-67.822"/>
</g>
<!-- Node3 -->
<g id="node3" class="node"><title>Node3</title>
<ellipse fill="none" stroke="black" cx="102.84" cy="-18.377" rx="27" ry="18"/>
<text text-anchor="middle" x="102.84" y="-14.177" font-family="Helvetica,sans-Serif" font-size="14.00">C</text>
</g>
<!-- Node1&#45;&#45;Node3 -->
<g id="edge2" class="edge"><title>Node1&#45;&#45;Node3</title>
<path fill="none" stroke="blue" stroke-width="5" d="M62.0973,-30.6781C67.3147,-29.1029 72.8201,-27.4407 78.0388,-25.865"/>
</g>
<!-- Node4 -->
<g id="node4" class="node"><title>Node4</title>
<ellipse fill="none" stroke="black" cx="27.4355" cy="-103.452" rx="27" ry="18"/>
<text text-anchor="middle" x="27.4355" y="-99.2521" font-family="Helvetica,sans-Serif" font-size="14.00">D</text>
</g>
<!-- Node1&#45;&#45;Node4 -->
<g id="edge7" class="edge"><title>Node1&#45;&#45;Node4</title>
<path fill="none" stroke="lightgrey" stroke-dasharray="5,2" d="M34.5748,-56.3443C33.2023,-65.4009 31.5478,-76.3177 30.1773,-85.3609"/>
</g>
<!-- Node5 -->
<g id="node5" class="node"><title>Node5</title>
<ellipse fill="none" stroke="black" cx="94.3454" cy="-122.908" rx="27" ry="18"/>
<text text-anchor="middle" x="94.3454" y="-118.708" font-family="Helvetica,sans-Serif" font-size="14.00">E</text>
</g>
<!-- Node1&#45;&#45;Node5 -->
<g id="edge8" class="edge"><title>Node1&#45;&#45;Node5</title>
<path fill="none" stroke="lightgrey" stroke-dasharray="5,2" d="M48.5955,-54.9C58.5908,-69.7583 73.1164,-91.3508 83.1046,-106.199"/>
</g>
<!-- Node2&#45;&#45;Node3 -->
<g id="edge3" class="edge"><title>Node2&#45;&#45;Node3</title>
<path fill="none" stroke="blue" stroke-width="5" d="M131.573,-59.9891C126.198,-52.2048 119.795,-42.9311 114.398,-35.1161"/>
</g>
<!-- Node2&#45;&#45;Node4 -->
<g id="edge9" class="edge"><title>Node2&#45;&#45;Node4</title>
<path fill="none" stroke="lightgrey" stroke-dasharray="5,2" d="M117.325,-82.47C98.1795,-86.9389 72.1312,-93.0191 53.0034,-97.484"/>
</g>
<!-- Node2&#45;&#45;Node5 -->
<g id="edge10" class="edge"><title>Node2&#45;&#45;Node5</title>
<path fill="none" stroke="lightgrey" stroke-dasharray="5,2" d="M127.313,-91.4292C121.761,-96.7304 115.516,-102.693 109.967,-107.992"/>
</g>
<!-- Node3&#45;&#45;Node4 -->
<g id="edge4" class="edge"><title>Node3&#45;&#45;Node4</title>
<path fill="none" stroke="orange" stroke-width="5" d="M89.0094,-33.9811C75.404,-49.3314 54.7531,-72.6309 41.1781,-87.9469"/>
</g>
<!-- Node3&#45;&#45;Node5 -->
<g id="edge5" class="edge"><title>Node3&#45;&#45;Node5</title>
<path fill="none" stroke="orange" stroke-width="5" d="M101.36,-36.585C99.801,-55.771 97.3607,-85.802 95.808,-104.909"/>
</g>
<!-- Node4&#45;&#45;Node5 -->
<g id="edge6" class="edge"><title>Node4&#45;&#45;Node5</title>
<path fill="none" stroke="orange" stroke-width="5" d="M52.3503,-110.697C57.8492,-112.296 63.6781,-113.991 69.1866,-115.593"/>
</g>
</g>
</svg>
