<?xml version="1.0" encoding="UTF-8" standalone="no"?>
<!DOCTYPE svg PUBLIC "-//W3C//DTD SVG 1.1//EN"
 "http://www.w3.org/Graphics/SVG/1.1/DTD/svg11.dtd">
<!-- Generated by graphviz version 2.38.0 (20140413.2041)
 -->
<!-- Title: Quorum Pages: 1 -->
<svg width="201pt" height="139pt"
 viewBox="0.00 0.00 201.00 139.00" xmlns="http://www.w3.org/2000/svg" xmlns:xlink="http://www.w3.org/1999/xlink">
<g id="graph0" class="graph" transform="scale(1 1) rotate(0) translate(4 135)">
<title>Quorum</title>
<!-- Node1 -->
<g id="node1" class="node"><title>Node1</title>
<ellipse fill="none" stroke="black" cx="98.9558" cy="-112.506" rx="27" ry="18"/>
<text text-anchor="middle" x="98.9558" y="-108.306" font-family="Helvetica,sans-Serif" font-size="14.00">A</text>
</g>
<!-- Node2 -->
<g id="node2" class="node"><title>Node2</title>
<ellipse fill="none" stroke="black" cx="122.672" cy="-17.5138" rx="27" ry="18"/>
<text text-anchor="middle" x="122.672" y="-13.3138" font-family="Helvetica,sans-Serif" font-size="14.00">B</text>
</g>
<!-- Node1&#45;&#45;Node2 -->
<g id="edge1" class="edge"><title>Node1&#45;&#45;Node2</title>
<path fill="none" stroke="blue" stroke-width="5" d="M103.417,-94.6385C107.657,-77.6555 113.998,-52.2575 118.231,-35.3009"/>
</g>
<!-- Node3 -->
<g id="node3" class="node"><title>Node3</title>
<ellipse fill="none" stroke="black" cx="58.9726" cy="-24.6984" rx="27" ry="18"/>
<text text-anchor="middle" x="58.9726" y="-20.4984" font-family="Helvetica,sans-Serif" font-size="14.00">C</text>
</g>
<!-- Node1&#45;&#45;Node3 -->
<g id="edge2" class="edge"><title>Node1&#45;&#45;Node3</title>
<path fill="none" stroke="blue" stroke-width="5" d="M91.0564,-95.1579C84.0468,-79.764 73.8602,-57.3932 66.8556,-42.0103"/>
</g>
<!-- Node4 -->
<g id="node4" class="node"><title>Node4</title>
<ellipse fill="none" stroke="black" cx="26.9465" cy="-84.5258" rx="27" ry="18"/>
<text text-anchor="middle" x="26.9465" y="-80.3258" font-family="Helvetica,sans-Serif" font-size="14.00">D</text>
</g>
<!-- Node1&#45;&#45;Node4 -->
<g id="edge6" class="edge"><title>Node1&#45;&#45;Node4</title>
<path fill="none" stroke="red" stroke-dasharray="5,2" d="M75.3773,-103.344C67.3378,-100.22 58.3563,-96.7304 50.3321,-93.6125"/>
</g>
<!-- Node5 -->
<g id="node5" class="node"><title>Node5</title>
<ellipse fill="none" stroke="black" cx="165.558" cy="-73.0222" rx="27" ry="18"/>
<text text-anchor="middle" x="165.558" y="-68.8222" font-family="Helvetica,sans-Serif" font-size="14.00">E</text>
</g>
<!-- Node1&#45;&#45;Node5 -->
<g id="edge7" class="edge"><title>Node1&#45;&#45;Node5</title>
<path fill="none" stroke="red" stroke-dasharray="5,2" d="M119.3,-100.445C127.563,-95.5463 137.087,-89.9003 145.338,-85.0092"/>
</g>
<!-- Node2&#45;&#45;Node3 -->
<g id="edge3" class="edge"><title>Node2&#45;&#45;Node3</title>
<path fill="none" stroke="blue" stroke-width="5" d="M96.0268,-20.5191C92.6176,-20.9036 89.1266,-21.2974 85.7158,-21.6821"/>
</g>
<!-- Node2&#45;&#45;Node4 -->
<g id="edge8" class="edge"><title>Node2&#45;&#45;Node4</title>
<path fill="none" stroke="red" stroke-dasharray="5,2" d="M103.76,-30.7532C86.9777,-42.5013 62.5896,-59.5741 45.8195,-71.3139"/>
</g>
<!-- Node2&#45;&#45;Node5 -->
<g id="edge9" class="edge"><title>Node2&#45;&#45;Node5</title>
<path fill="none" stroke="red" stroke-dasharray="5,2" d="M135.076,-33.5691C140.717,-40.8695 147.378,-49.4916 153.033,-56.8106"/>
</g>
<!-- Node3&#45;&#45;Node4 -->
<g id="edge4" class="edge"><title>Node3&#45;&#45;Node4</title>
<path fill="none" stroke="red" stroke-dasharray="5,2" d="M49.8809,-41.6825C45.5906,-49.6972 40.4794,-59.2452 36.1722,-67.2915"/>
</g>
<!-- Node3&#45;&#45;Node5 -->
<g id="edge5" class="edge"><title>Node3&#45;&#45;Node5</title>
<path fill="none" stroke="red" stroke-dasharray="5,2" d="M81.3163,-34.8286C99.3851,-43.0207 124.718,-54.5061 142.876,-62.7388"/>
</g>
</g>
</svg>
