<?xml version="1.0" encoding="UTF-8" standalone="no"?>
<!-- Created with Inkscape (http://www.inkscape.org/) -->

<svg
   xmlns:osb="http://www.openswatchbook.org/uri/2009/osb"
   xmlns:dc="http://purl.org/dc/elements/1.1/"
   xmlns:cc="http://creativecommons.org/ns#"
   xmlns:rdf="http://www.w3.org/1999/02/22-rdf-syntax-ns#"
   xmlns:svg="http://www.w3.org/2000/svg"
   xmlns="http://www.w3.org/2000/svg"
   xmlns:sodipodi="http://sodipodi.sourceforge.net/DTD/sodipodi-0.dtd"
   xmlns:inkscape="http://www.inkscape.org/namespaces/inkscape"
   width="70.214287"
   height="69.160713"
   id="svg3813"
   version="1.1"
   inkscape:version="0.48.2 r9819"
   sodipodi:docname="cap-venn-base.svg">
  <defs
     id="defs3815">
    <linearGradient
       id="linearGradient6075"
       osb:paint="solid">
      <stop
         style="stop-color:#292627;stop-opacity:1;"
         offset="0"
         id="stop6077" />
    </linearGradient>
    <linearGradient
       id="linearGradient6028"
       osb:paint="solid">
      <stop
         style="stop-color:#292627;stop-opacity:1;"
         offset="0"
         id="stop6030" />
    </linearGradient>
    <pattern
       patternUnits="userSpaceOnUse"
       width="3.2418613"
       height="3.0134779"
       patternTransform="translate(339.42517,340.68544)"
       id="pattern6210">
      <text
         transform="scale(0.96637627,1.0347936)"
         sodipodi:linespacing="125%"
         id="text6206"
         y="2.9121535"
         x="-0.032888796"
         style="font-size:6.12329626px;font-style:normal;font-variant:normal;font-weight:500;font-stretch:normal;text-align:start;line-height:125%;letter-spacing:0px;word-spacing:0px;writing-mode:lr-tb;text-anchor:start;fill:#000000;fill-opacity:1;stroke:none;font-family:Futura;-inkscape-font-specification:Futura Medium"
         xml:space="preserve"><tspan
           y="2.9121535"
           x="-0.032888796"
           id="tspan6208"
           sodipodi:role="line">x</tspan></text>
    </pattern>
  </defs>
  <sodipodi:namedview
     id="base"
     pagecolor="#ffffff"
     bordercolor="#666666"
     borderopacity="1.0"
     inkscape:pageopacity="0.0"
     inkscape:pageshadow="2"
     inkscape:zoom="7.9195959"
     inkscape:cx="38.643221"
     inkscape:cy="38.465594"
     inkscape:document-units="px"
     inkscape:current-layer="layer1"
     showgrid="false"
     inkscape:snap-bbox="true"
     inkscape:snap-bbox-midpoints="true"
     inkscape:snap-nodes="false"
     inkscape:window-width="1440"
     inkscape:window-height="852"
     inkscape:window-x="77"
     inkscape:window-y="0"
     inkscape:window-maximized="0"
     fit-margin-top="0"
     fit-margin-left="0"
     fit-margin-right="0"
     fit-margin-bottom="0" />
  <metadata
     id="metadata3818">
    <rdf:RDF>
      <cc:Work
         rdf:about="">
        <dc:format>image/svg+xml</dc:format>
        <dc:type
           rdf:resource="http://purl.org/dc/dcmitype/StillImage" />
        <dc:title></dc:title>
      </cc:Work>
    </rdf:RDF>
  </metadata>
  <g
     inkscape:label="Layer 1"
     inkscape:groupmode="layer"
     id="layer1"
     transform="translate(-357.39286,-324.54076)">
    <path
       style="fill:#444dff;fill-opacity:0.47058824;stroke:none"
       d="M 48.59375 25.9375 C 43.485256 25.9375 38.823701 27.723529 35.125 30.6875 C 40.055201 34.647654 43.21875 40.746664 43.21875 47.5625 C 43.21875 54.378336 40.055201 60.446096 35.125 64.40625 C 38.823701 67.370221 43.485256 69.15625 48.59375 69.15625 C 60.527046 69.15625 70.21875 59.495796 70.21875 47.5625 C 70.21875 35.629204 60.527046 25.9375 48.59375 25.9375 z "
       transform="translate(357.39286,324.54076)"
       id="path6220" />
    <path
       style="fill:#ffce26;fill-opacity:0.47058824;stroke:none"
       d="M 14.25 27.21875 C 5.9424659 30.230153 0 38.215186 0 47.5625 C 0 59.495796 9.6604542 69.15625 21.59375 69.15625 C 33.527046 69.15625 43.21875 59.495796 43.21875 47.5625 C 43.21875 45.618558 42.950121 43.729474 42.46875 41.9375 C 40.170429 42.77062 37.679732 43.21875 35.09375 43.21875 C 25.104396 43.21875 16.723628 36.427187 14.25 27.21875 z "
       transform="translate(357.39286,324.54076)"
       id="path3832" />
    <path
       style="fill:#ff2639;fill-opacity:0.47058824;stroke:none"
       d="M 35.09375 0 C 23.160454 0 13.5 9.6604542 13.5 21.59375 C 13.5 23.537692 13.768629 25.426776 14.25 27.21875 C 16.548321 26.38563 19.007768 25.9375 21.59375 25.9375 C 31.583104 25.9375 39.995122 32.729063 42.46875 41.9375 C 50.776284 38.926097 56.71875 30.941064 56.71875 21.59375 C 56.71875 9.6604542 47.027046 0 35.09375 0 z "
       transform="translate(357.39286,324.54076)"
       id="path6225" />
    <text
       xml:space="preserve"
       style="font-size:16px;font-style:normal;font-variant:normal;font-weight:bold;font-stretch:normal;text-align:start;line-height:125%;letter-spacing:0px;word-spacing:0px;writing-mode:lr-tb;text-anchor:start;fill:#292627;fill-opacity:1;stroke:none;font-family:Adobe Gothic Std;-inkscape-font-specification:Adobe Gothic Std Bold"
       x="368.79199"
       y="384.39832"
       id="text4356"
       sodipodi:linespacing="125%"><tspan
         sodipodi:role="line"
         id="tspan4358"
         x="368.79199"
         y="384.39832">A</tspan></text>
    <text
       xml:space="preserve"
       style="font-size:16px;font-style:normal;font-variant:normal;font-weight:bold;font-stretch:normal;text-align:start;line-height:125%;letter-spacing:0px;word-spacing:0px;writing-mode:lr-tb;text-anchor:start;fill:#292627;fill-opacity:1;stroke:none;font-family:Adobe Gothic Std;-inkscape-font-specification:Adobe Gothic Std Bold"
       x="389.29999"
       y="344.14789"
       id="text4360"
       sodipodi:linespacing="125%"><tspan
         sodipodi:role="line"
         id="tspan4362"
         x="389.29999"
         y="344.14789">P</tspan></text>
    <text
       xml:space="preserve"
       style="font-size:16px;font-style:normal;font-variant:normal;font-weight:bold;font-stretch:normal;text-align:start;line-height:125%;letter-spacing:0px;word-spacing:0px;writing-mode:lr-tb;text-anchor:start;fill:#292627;fill-opacity:1;stroke:none;font-family:Adobe Gothic Std;-inkscape-font-specification:Adobe Gothic Std Bold"
       x="405.40799"
       y="384.57434"
       id="text4364"
       sodipodi:linespacing="125%"><tspan
         sodipodi:role="line"
         id="tspan4366"
         x="405.40799"
         y="384.57434">C</tspan></text>
    <path
       style="fill:#3cb74a;fill-opacity:1;stroke:#11ff00;stroke-opacity:1;stroke-width:0.80000000000000004;stroke-miterlimit:4;stroke-dasharray:none;stroke-dashoffset:0"
       d="M 48.59375 25.9375 C 43.479103 25.9375 38.788027 27.713823 35.09375 30.6875 C 38.620022 33.513294 41.256636 37.419143 42.46875 41.90625 C 49.043146 39.514644 54.136847 34.038273 55.96875 27.21875 C 53.670429 26.38563 51.179732 25.9375 48.59375 25.9375 z "
       transform="translate(357.39286,324.54076)"
       id="path6166" />
    <path
       style="fill:#3cb74a;fill-opacity:1;stroke:#11ff00;stroke-opacity:1;stroke-width:0.80000000000000004;stroke-miterlimit:4;stroke-dasharray:none;stroke-dashoffset:0"
       d="M 27.75 41.9375 C 27.263819 43.734395 27 45.613262 27 47.5625 C 27 54.387302 30.183642 60.44647 35.125 64.40625 C 40.055201 60.446096 43.21875 54.378336 43.21875 47.5625 C 43.21875 45.615823 42.952329 43.734098 42.46875 41.9375 C 40.170429 42.77062 37.679732 43.21875 35.09375 43.21875 C 32.507768 43.21875 30.048321 42.77062 27.75 41.9375 z "
       transform="translate(357.39286,324.54076)"
       id="path6168" />
    <path
       style="fill:#3cb74a;fill-opacity:1;stroke:#11ff00;stroke-opacity:1;stroke-width:0.80000000000000004;stroke-miterlimit:4;stroke-dasharray:none;stroke-dashoffset:0"
       d="M 21.59375 25.9375 C 19.007768 25.9375 16.548321 26.38563 14.25 27.21875 C 16.084103 34.046462 21.173024 39.519234 27.75 41.90625 C 28.962114 37.419143 31.598728 33.513294 35.125 30.6875 C 31.420438 27.706608 26.715279 25.9375 21.59375 25.9375 z "
       transform="translate(357.39286,324.54076)"
       id="path6170" />
  </g>
</svg>
