<?xml version="1.0" encoding="UTF-8" standalone="no"?>
<!DOCTYPE svg PUBLIC "-//W3C//DTD SVG 1.1//EN"
 "http://www.w3.org/Graphics/SVG/1.1/DTD/svg11.dtd">
<!-- Generated by graphviz version 2.38.0 (20140413.2041)
 -->
<!-- Title: ComplexCvRDTMerge Pages: 1 -->
<svg width="766pt" height="188pt"
 viewBox="0.00 0.00 765.53 188.00" xmlns="http://www.w3.org/2000/svg" xmlns:xlink="http://www.w3.org/1999/xlink">
<g id="graph0" class="graph" transform="scale(1 1) rotate(0) translate(4 184)">
<title>ComplexCvRDTMerge</title>
<!-- NodeAState1 -->
<g id="node1" class="node"><title>NodeAState1</title>
<ellipse fill="none" stroke="black" cx="30.7646" cy="-162" rx="30.531" ry="18"/>
<text text-anchor="middle" x="30.7646" y="-157.8" font-family="Helvetica,sans-Serif" font-size="14.00">{a: 1}</text>
</g>
<!-- NodeAIntermediate1 -->
<g id="node5" class="node"><title>NodeAIntermediate1</title>
<ellipse fill="none" stroke="black" cx="100.765" cy="-90" rx="50.3585" ry="18"/>
<text text-anchor="middle" x="100.765" y="-85.8" font-family="Helvetica,sans-Serif" font-size="14.00">{a: 1, b: 2}</text>
</g>
<!-- NodeAState1&#45;&gt;NodeAIntermediate1 -->
<g id="edge1" class="edge"><title>NodeAState1&#45;&gt;NodeAIntermediate1</title>
<path fill="none" stroke="black" d="M45.6098,-146.155C54.7813,-136.983 66.7539,-125.011 77.1997,-114.565"/>
<polygon fill="black" stroke="black" points="79.8779,-116.836 84.4741,-107.29 74.9282,-111.887 79.8779,-116.836"/>
</g>
<!-- NodeAState2 -->
<g id="node2" class="node"><title>NodeAState2</title>
<ellipse fill="none" stroke="black" cx="110.765" cy="-162" rx="30.531" ry="18"/>
<text text-anchor="middle" x="110.765" y="-157.8" font-family="Helvetica,sans-Serif" font-size="14.00">{b: 2}</text>
</g>
<!-- NodeAState2&#45;&gt;NodeAIntermediate1 -->
<g id="edge2" class="edge"><title>NodeAState2&#45;&gt;NodeAIntermediate1</title>
<path fill="none" stroke="black" d="M108.344,-144.055C107.243,-136.346 105.911,-127.027 104.674,-118.364"/>
<polygon fill="black" stroke="black" points="108.112,-117.68 103.233,-108.275 101.182,-118.67 108.112,-117.68"/>
</g>
<!-- NodeAState3 -->
<g id="node3" class="node"><title>NodeAState3</title>
<ellipse fill="none" stroke="black" cx="208.765" cy="-162" rx="30.0378" ry="18"/>
<text text-anchor="middle" x="208.765" y="-157.8" font-family="Helvetica,sans-Serif" font-size="14.00">{c: 3}</text>
</g>
<!-- NodeAIntermediate2 -->
<g id="node6" class="node"><title>NodeAIntermediate2</title>
<ellipse fill="none" stroke="black" cx="218.765" cy="-90" rx="49.8654" ry="18"/>
<text text-anchor="middle" x="218.765" y="-85.8" font-family="Helvetica,sans-Serif" font-size="14.00">{c: 3, d: 4}</text>
</g>
<!-- NodeAState3&#45;&gt;NodeAIntermediate2 -->
<g id="edge3" class="edge"><title>NodeAState3&#45;&gt;NodeAIntermediate2</title>
<path fill="none" stroke="black" d="M211.185,-144.055C212.287,-136.346 213.618,-127.027 214.855,-118.364"/>
<polygon fill="black" stroke="black" points="218.347,-118.67 216.297,-108.275 211.418,-117.68 218.347,-118.67"/>
</g>
<!-- NodeAState4 -->
<g id="node4" class="node"><title>NodeAState4</title>
<ellipse fill="none" stroke="black" cx="287.765" cy="-162" rx="30.531" ry="18"/>
<text text-anchor="middle" x="287.765" y="-157.8" font-family="Helvetica,sans-Serif" font-size="14.00">{d: 4}</text>
</g>
<!-- NodeAState4&#45;&gt;NodeAIntermediate2 -->
<g id="edge4" class="edge"><title>NodeAState4&#45;&gt;NodeAIntermediate2</title>
<path fill="none" stroke="black" d="M273.131,-146.155C264.091,-136.983 252.289,-125.011 241.993,-114.565"/>
<polygon fill="black" stroke="black" points="244.335,-111.955 234.822,-107.29 239.35,-116.869 244.335,-111.955"/>
</g>
<!-- NodeAFinal -->
<g id="node7" class="node"><title>NodeAFinal</title>
<ellipse fill="none" stroke="black" cx="159.765" cy="-18" rx="89.0244" ry="18"/>
<text text-anchor="middle" x="159.765" y="-13.8" font-family="Helvetica,sans-Serif" font-size="14.00">{a: 1, b: 2, c: 3, d: 4}</text>
</g>
<!-- NodeAIntermediate1&#45;&gt;NodeAFinal -->
<g id="edge5" class="edge"><title>NodeAIntermediate1&#45;&gt;NodeAFinal</title>
<path fill="none" stroke="black" d="M114.747,-72.411C121.988,-63.8197 130.973,-53.1594 139.007,-43.6275"/>
<polygon fill="black" stroke="black" points="141.704,-45.8582 145.473,-35.9562 136.352,-41.3468 141.704,-45.8582"/>
</g>
<!-- NodeAIntermediate2&#45;&gt;NodeAFinal -->
<g id="edge6" class="edge"><title>NodeAIntermediate2&#45;&gt;NodeAFinal</title>
<path fill="none" stroke="black" d="M204.782,-72.411C197.541,-63.8197 188.556,-53.1594 180.522,-43.6275"/>
<polygon fill="black" stroke="black" points="183.177,-41.3468 174.056,-35.9562 177.825,-45.8582 183.177,-41.3468"/>
</g>
<!-- NodeBState1 -->
<g id="node8" class="node"><title>NodeBState1</title>
<ellipse fill="none" stroke="black" cx="386.765" cy="-162" rx="50.3585" ry="18"/>
<text text-anchor="middle" x="386.765" y="-157.8" font-family="Helvetica,sans-Serif" font-size="14.00">{a: 1, b: 2}</text>
</g>
<!-- NodeBIntermediate1 -->
<g id="node12" class="node"><title>NodeBIntermediate1</title>
<ellipse fill="none" stroke="black" cx="519.765" cy="-90" rx="69.6947" ry="18"/>
<text text-anchor="middle" x="519.765" y="-85.8" font-family="Helvetica,sans-Serif" font-size="14.00">{a: 1, b: 2, c: 3}</text>
</g>
<!-- NodeBState1&#45;&gt;NodeBIntermediate1 -->
<g id="edge7" class="edge"><title>NodeBState1&#45;&gt;NodeBIntermediate1</title>
<path fill="none" stroke="black" d="M414,-146.666C433.418,-136.446 459.793,-122.564 481.347,-111.22"/>
<polygon fill="black" stroke="black" points="483.036,-114.286 490.255,-106.531 479.776,-108.091 483.036,-114.286"/>
</g>
<!-- NodeBState2 -->
<g id="node9" class="node"><title>NodeBState2</title>
<ellipse fill="none" stroke="black" cx="524.765" cy="-162" rx="69.6947" ry="18"/>
<text text-anchor="middle" x="524.765" y="-157.8" font-family="Helvetica,sans-Serif" font-size="14.00">{a: 1, b: 2, c: 3}</text>
</g>
<!-- NodeBState2&#45;&gt;NodeBIntermediate1 -->
<g id="edge8" class="edge"><title>NodeBState2&#45;&gt;NodeBIntermediate1</title>
<path fill="none" stroke="black" d="M523.529,-143.697C522.978,-135.983 522.315,-126.712 521.701,-118.112"/>
<polygon fill="black" stroke="black" points="525.19,-117.83 520.986,-108.104 518.208,-118.328 525.19,-117.83"/>
</g>
<!-- NodeBState3 -->
<g id="node10" class="node"><title>NodeBState3</title>
<ellipse fill="none" stroke="black" cx="647.765" cy="-162" rx="30.0378" ry="18"/>
<text text-anchor="middle" x="647.765" y="-157.8" font-family="Helvetica,sans-Serif" font-size="14.00">{c: 3}</text>
</g>
<!-- NodeBIntermediate2 -->
<g id="node13" class="node"><title>NodeBIntermediate2</title>
<ellipse fill="none" stroke="black" cx="657.765" cy="-90" rx="49.8654" ry="18"/>
<text text-anchor="middle" x="657.765" y="-85.8" font-family="Helvetica,sans-Serif" font-size="14.00">{c: 3, d: 4}</text>
</g>
<!-- NodeBState3&#45;&gt;NodeBIntermediate2 -->
<g id="edge9" class="edge"><title>NodeBState3&#45;&gt;NodeBIntermediate2</title>
<path fill="none" stroke="black" d="M650.185,-144.055C651.287,-136.346 652.618,-127.027 653.855,-118.364"/>
<polygon fill="black" stroke="black" points="657.347,-118.67 655.297,-108.275 650.418,-117.68 657.347,-118.67"/>
</g>
<!-- NodeBState4 -->
<g id="node11" class="node"><title>NodeBState4</title>
<ellipse fill="none" stroke="black" cx="726.765" cy="-162" rx="30.531" ry="18"/>
<text text-anchor="middle" x="726.765" y="-157.8" font-family="Helvetica,sans-Serif" font-size="14.00">{d: 4}</text>
</g>
<!-- NodeBState4&#45;&gt;NodeBIntermediate2 -->
<g id="edge10" class="edge"><title>NodeBState4&#45;&gt;NodeBIntermediate2</title>
<path fill="none" stroke="black" d="M712.131,-146.155C703.091,-136.983 691.289,-125.011 680.993,-114.565"/>
<polygon fill="black" stroke="black" points="683.335,-111.955 673.822,-107.29 678.35,-116.869 683.335,-111.955"/>
</g>
<!-- NodeBFinal -->
<g id="node14" class="node"><title>NodeBFinal</title>
<ellipse fill="none" stroke="black" cx="588.765" cy="-18" rx="89.0244" ry="18"/>
<text text-anchor="middle" x="588.765" y="-13.8" font-family="Helvetica,sans-Serif" font-size="14.00">{a: 1, b: 2, c: 3, d: 4}</text>
</g>
<!-- NodeBIntermediate1&#45;&gt;NodeBFinal -->
<g id="edge11" class="edge"><title>NodeBIntermediate1&#45;&gt;NodeBFinal</title>
<path fill="none" stroke="black" d="M536.117,-72.411C544.67,-63.7338 555.304,-52.946 564.77,-43.3418"/>
<polygon fill="black" stroke="black" points="567.523,-45.535 572.051,-35.9562 562.538,-40.621 567.523,-45.535"/>
</g>
<!-- NodeBIntermediate2&#45;&gt;NodeBFinal -->
<g id="edge12" class="edge"><title>NodeBIntermediate2&#45;&gt;NodeBFinal</title>
<path fill="none" stroke="black" d="M641.761,-72.7646C633.132,-64.0105 622.311,-53.0328 612.701,-43.2831"/>
<polygon fill="black" stroke="black" points="615.157,-40.7887 605.644,-36.1239 610.171,-45.7027 615.157,-40.7887"/>
</g>
</g>
</svg>
