<?xml version="1.0" encoding="UTF-8" standalone="no"?>
<!DOCTYPE svg PUBLIC "-//W3C//DTD SVG 1.1//EN"
 "http://www.w3.org/Graphics/SVG/1.1/DTD/svg11.dtd">
<!-- Generated by graphviz version 2.38.0 (20140413.2041)
 -->
<!-- Title: ComplexCvRDTMerge Pages: 1 -->
<svg width="606pt" height="188pt"
 viewBox="0.00 0.00 606.00 188.00" xmlns="http://www.w3.org/2000/svg" xmlns:xlink="http://www.w3.org/1999/xlink">
<g id="graph0" class="graph" transform="scale(1 1) rotate(0) translate(4 184)">
<title>ComplexCvRDTMerge</title>
<!-- NodeAState1 -->
<g id="node1" class="node"><title>NodeAState1</title>
<ellipse fill="none" stroke="black" cx="27" cy="-162" rx="27" ry="18"/>
<text text-anchor="middle" x="27" y="-157.8" font-family="Helvetica,sans-Serif" font-size="14.00">{1}</text>
</g>
<!-- NodeAIntermediate1 -->
<g id="node5" class="node"><title>NodeAIntermediate1</title>
<ellipse fill="none" stroke="black" cx="97" cy="-90" rx="30.531" ry="18"/>
<text text-anchor="middle" x="97" y="-85.8" font-family="Helvetica,sans-Serif" font-size="14.00">{1, 2}</text>
</g>
<!-- NodeAState1&#45;&gt;NodeAIntermediate1 -->
<g id="edge1" class="edge"><title>NodeAState1&#45;&gt;NodeAIntermediate1</title>
<path fill="none" stroke="black" d="M41.504,-146.496C51.1351,-136.865 63.963,-124.037 74.8594,-113.141"/>
<polygon fill="black" stroke="black" points="77.4353,-115.514 82.0316,-105.968 72.4856,-110.565 77.4353,-115.514"/>
</g>
<!-- NodeAState2 -->
<g id="node2" class="node"><title>NodeAState2</title>
<ellipse fill="none" stroke="black" cx="99" cy="-162" rx="27" ry="18"/>
<text text-anchor="middle" x="99" y="-157.8" font-family="Helvetica,sans-Serif" font-size="14.00">{2}</text>
</g>
<!-- NodeAState2&#45;&gt;NodeAIntermediate1 -->
<g id="edge2" class="edge"><title>NodeAState2&#45;&gt;NodeAIntermediate1</title>
<path fill="none" stroke="black" d="M98.5056,-143.697C98.2852,-135.983 98.0204,-126.712 97.7746,-118.112"/>
<polygon fill="black" stroke="black" points="101.273,-118 97.4887,-108.104 94.2758,-118.2 101.273,-118"/>
</g>
<!-- NodeAState3 -->
<g id="node3" class="node"><title>NodeAState3</title>
<ellipse fill="none" stroke="black" cx="175" cy="-162" rx="27" ry="18"/>
<text text-anchor="middle" x="175" y="-157.8" font-family="Helvetica,sans-Serif" font-size="14.00">{3}</text>
</g>
<!-- NodeAIntermediate2 -->
<g id="node6" class="node"><title>NodeAIntermediate2</title>
<ellipse fill="none" stroke="black" cx="177" cy="-90" rx="30.531" ry="18"/>
<text text-anchor="middle" x="177" y="-85.8" font-family="Helvetica,sans-Serif" font-size="14.00">{3, 4}</text>
</g>
<!-- NodeAState3&#45;&gt;NodeAIntermediate2 -->
<g id="edge3" class="edge"><title>NodeAState3&#45;&gt;NodeAIntermediate2</title>
<path fill="none" stroke="black" d="M175.494,-143.697C175.715,-135.983 175.98,-126.712 176.225,-118.112"/>
<polygon fill="black" stroke="black" points="179.724,-118.2 176.511,-108.104 172.727,-118 179.724,-118.2"/>
</g>
<!-- NodeAState4 -->
<g id="node4" class="node"><title>NodeAState4</title>
<ellipse fill="none" stroke="black" cx="247" cy="-162" rx="27" ry="18"/>
<text text-anchor="middle" x="247" y="-157.8" font-family="Helvetica,sans-Serif" font-size="14.00">{4}</text>
</g>
<!-- NodeAState4&#45;&gt;NodeAIntermediate2 -->
<g id="edge4" class="edge"><title>NodeAState4&#45;&gt;NodeAIntermediate2</title>
<path fill="none" stroke="black" d="M232.496,-146.496C222.865,-136.865 210.037,-124.037 199.141,-113.141"/>
<polygon fill="black" stroke="black" points="201.514,-110.565 191.968,-105.968 196.565,-115.514 201.514,-110.565"/>
</g>
<!-- NodeAFinal -->
<g id="node7" class="node"><title>NodeAFinal</title>
<ellipse fill="none" stroke="black" cx="137" cy="-18" rx="50.3585" ry="18"/>
<text text-anchor="middle" x="137" y="-13.8" font-family="Helvetica,sans-Serif" font-size="14.00">{1, 2, 3, 4}</text>
</g>
<!-- NodeAIntermediate1&#45;&gt;NodeAFinal -->
<g id="edge5" class="edge"><title>NodeAIntermediate1&#45;&gt;NodeAFinal</title>
<path fill="none" stroke="black" d="M106.277,-72.7646C110.985,-64.5255 116.819,-54.3166 122.134,-45.0157"/>
<polygon fill="black" stroke="black" points="125.292,-46.5429 127.215,-36.1239 119.215,-43.0699 125.292,-46.5429"/>
</g>
<!-- NodeAIntermediate2&#45;&gt;NodeAFinal -->
<g id="edge6" class="edge"><title>NodeAIntermediate2&#45;&gt;NodeAFinal</title>
<path fill="none" stroke="black" d="M167.723,-72.7646C163.015,-64.5255 157.181,-54.3166 151.866,-45.0157"/>
<polygon fill="black" stroke="black" points="154.785,-43.0699 146.785,-36.1239 148.708,-46.5429 154.785,-43.0699"/>
</g>
<!-- NodeBState1 -->
<g id="node8" class="node"><title>NodeBState1</title>
<ellipse fill="none" stroke="black" cx="323" cy="-162" rx="30.531" ry="18"/>
<text text-anchor="middle" x="323" y="-157.8" font-family="Helvetica,sans-Serif" font-size="14.00">{1, 2}</text>
</g>
<!-- NodeBIntermediate1 -->
<g id="node12" class="node"><title>NodeBIntermediate1</title>
<ellipse fill="none" stroke="black" cx="411" cy="-90" rx="40.6941" ry="18"/>
<text text-anchor="middle" x="411" y="-85.8" font-family="Helvetica,sans-Serif" font-size="14.00">{1, 2, 3}</text>
</g>
<!-- NodeBState1&#45;&gt;NodeBIntermediate1 -->
<g id="edge7" class="edge"><title>NodeBState1&#45;&gt;NodeBIntermediate1</title>
<path fill="none" stroke="black" d="M340.808,-146.834C353.235,-136.949 370.044,-123.578 384.098,-112.399"/>
<polygon fill="black" stroke="black" points="386.353,-115.078 392,-106.114 381.995,-109.6 386.353,-115.078"/>
</g>
<!-- NodeBState2 -->
<g id="node9" class="node"><title>NodeBState2</title>
<ellipse fill="none" stroke="black" cx="412" cy="-162" rx="40.6941" ry="18"/>
<text text-anchor="middle" x="412" y="-157.8" font-family="Helvetica,sans-Serif" font-size="14.00">{1, 2, 3}</text>
</g>
<!-- NodeBState2&#45;&gt;NodeBIntermediate1 -->
<g id="edge8" class="edge"><title>NodeBState2&#45;&gt;NodeBIntermediate1</title>
<path fill="none" stroke="black" d="M411.753,-143.697C411.643,-135.983 411.51,-126.712 411.387,-118.112"/>
<polygon fill="black" stroke="black" points="414.887,-118.053 411.244,-108.104 407.888,-118.153 414.887,-118.053"/>
</g>
<!-- NodeBState3 -->
<g id="node10" class="node"><title>NodeBState3</title>
<ellipse fill="none" stroke="black" cx="499" cy="-162" rx="27" ry="18"/>
<text text-anchor="middle" x="499" y="-157.8" font-family="Helvetica,sans-Serif" font-size="14.00">{3}</text>
</g>
<!-- NodeBIntermediate2 -->
<g id="node13" class="node"><title>NodeBIntermediate2</title>
<ellipse fill="none" stroke="black" cx="500" cy="-90" rx="30.531" ry="18"/>
<text text-anchor="middle" x="500" y="-85.8" font-family="Helvetica,sans-Serif" font-size="14.00">{3, 4}</text>
</g>
<!-- NodeBState3&#45;&gt;NodeBIntermediate2 -->
<g id="edge9" class="edge"><title>NodeBState3&#45;&gt;NodeBIntermediate2</title>
<path fill="none" stroke="black" d="M499.247,-143.697C499.357,-135.983 499.49,-126.712 499.613,-118.112"/>
<polygon fill="black" stroke="black" points="503.112,-118.153 499.756,-108.104 496.113,-118.053 503.112,-118.153"/>
</g>
<!-- NodeBState4 -->
<g id="node11" class="node"><title>NodeBState4</title>
<ellipse fill="none" stroke="black" cx="571" cy="-162" rx="27" ry="18"/>
<text text-anchor="middle" x="571" y="-157.8" font-family="Helvetica,sans-Serif" font-size="14.00">{4}</text>
</g>
<!-- NodeBState4&#45;&gt;NodeBIntermediate2 -->
<g id="edge10" class="edge"><title>NodeBState4&#45;&gt;NodeBIntermediate2</title>
<path fill="none" stroke="black" d="M556.289,-146.496C546.52,-136.865 533.509,-124.037 522.457,-113.141"/>
<polygon fill="black" stroke="black" points="524.761,-110.497 515.182,-105.968 519.846,-115.482 524.761,-110.497"/>
</g>
<!-- NodeBFinal -->
<g id="node14" class="node"><title>NodeBFinal</title>
<ellipse fill="none" stroke="black" cx="455" cy="-18" rx="50.3585" ry="18"/>
<text text-anchor="middle" x="455" y="-13.8" font-family="Helvetica,sans-Serif" font-size="14.00">{1, 2, 3, 4}</text>
</g>
<!-- NodeBIntermediate1&#45;&gt;NodeBFinal -->
<g id="edge11" class="edge"><title>NodeBIntermediate1&#45;&gt;NodeBFinal</title>
<path fill="none" stroke="black" d="M421.427,-72.411C426.666,-64.0774 433.127,-53.7972 438.979,-44.4883"/>
<polygon fill="black" stroke="black" points="441.983,-46.2852 444.342,-35.9562 436.057,-42.56 441.983,-46.2852"/>
</g>
<!-- NodeBIntermediate2&#45;&gt;NodeBFinal -->
<g id="edge12" class="edge"><title>NodeBIntermediate2&#45;&gt;NodeBFinal</title>
<path fill="none" stroke="black" d="M489.563,-72.7646C484.133,-64.3172 477.371,-53.7993 471.272,-44.3122"/>
<polygon fill="black" stroke="black" points="474.045,-42.1525 465.693,-35.6334 468.156,-45.9379 474.045,-42.1525"/>
</g>
</g>
</svg>
