<?xml version="1.0" encoding="UTF-8" standalone="no"?>
<!DOCTYPE svg PUBLIC "-//W3C//DTD SVG 1.1//EN"
 "http://www.w3.org/Graphics/SVG/1.1/DTD/svg11.dtd">
<!-- Generated by graphviz version 2.38.0 (20140413.2041)
 -->
<!-- Title: ConsistencyModels Pages: 1 -->
<svg width="537pt" height="332pt"
 viewBox="0.00 0.00 536.51 332.00" xmlns="http://www.w3.org/2000/svg" xmlns:xlink="http://www.w3.org/1999/xlink">
<g id="graph0" class="graph" transform="scale(1 1) rotate(0) translate(4 328)">
<title>ConsistencyModels</title>
<!-- RU -->
<g id="node1" class="node"><title>RU</title>
<ellipse fill="LightBlue" stroke="blue" cx="99" cy="-18" rx="27" ry="18"/>
<text text-anchor="middle" x="99" y="-13.8" font-family="Helvetica,sans-Serif" font-size="14.00">RU</text>
</g>
<!-- RC -->
<g id="node2" class="node"><title>RC</title>
<ellipse fill="LightBlue" stroke="blue" cx="27" cy="-18" rx="27" ry="18"/>
<text text-anchor="middle" x="27" y="-13.8" font-family="Helvetica,sans-Serif" font-size="14.00">RC</text>
</g>
<!-- RC&#45;&gt;RU -->
<g id="edge22" class="edge"><title>RC&#45;&gt;RU</title>
<path fill="none" stroke="black" d="M54,-18C56.6147,-18 59.2295,-18 61.8442,-18"/>
<polygon fill="black" stroke="black" points="61.9297,-21.5001 71.9297,-18 61.9297,-14.5001 61.9297,-21.5001"/>
</g>
<!-- MAV -->
<g id="node3" class="node"><title>MAV</title>
<ellipse fill="LightBlue" stroke="blue" cx="139" cy="-90" rx="28.7375" ry="18"/>
<text text-anchor="middle" x="139" y="-85.8" font-family="Helvetica,sans-Serif" font-size="14.00">MAV</text>
</g>
<!-- MAV&#45;&gt;RC -->
<g id="edge21" class="edge"><title>MAV&#45;&gt;RC</title>
<path fill="none" stroke="black" d="M119.491,-76.8069C101.664,-65.6653 75.0995,-49.0622 55.0069,-36.5043"/>
<polygon fill="black" stroke="black" points="56.6204,-33.3854 46.2853,-31.0533 52.9103,-39.3214 56.6204,-33.3854"/>
</g>
<!-- ICI -->
<g id="node4" class="node"><title>ICI</title>
<ellipse fill="LightBlue" stroke="blue" cx="171" cy="-18" rx="27" ry="18"/>
<text text-anchor="middle" x="171" y="-13.8" font-family="Helvetica,sans-Serif" font-size="14.00">ICI</text>
</g>
<!-- PCI -->
<g id="node5" class="node"><title>PCI</title>
<ellipse fill="LightBlue" stroke="blue" cx="213" cy="-90" rx="27" ry="18"/>
<text text-anchor="middle" x="213" y="-85.8" font-family="Helvetica,sans-Serif" font-size="14.00">PCI</text>
</g>
<!-- PCI&#45;&gt;ICI -->
<g id="edge23" class="edge"><title>PCI&#45;&gt;ICI</title>
<path fill="none" stroke="black" d="M203.47,-73.1159C198.334,-64.5567 191.878,-53.7974 186.079,-44.1316"/>
<polygon fill="black" stroke="black" points="188.93,-42.0812 180.784,-35.307 182.928,-45.6827 188.93,-42.0812"/>
</g>
<!-- WFR -->
<g id="node6" class="node"><title>WFR</title>
<ellipse fill="LightBlue" stroke="blue" cx="388" cy="-90" rx="30.4862" ry="18"/>
<text text-anchor="middle" x="388" y="-85.8" font-family="Helvetica,sans-Serif" font-size="14.00">WFR</text>
</g>
<!-- MR -->
<g id="node7" class="node"><title>MR</title>
<ellipse fill="LightBlue" stroke="blue" cx="315" cy="-18" rx="27" ry="18"/>
<text text-anchor="middle" x="315" y="-13.8" font-family="Helvetica,sans-Serif" font-size="14.00">MR</text>
</g>
<!-- MW -->
<g id="node8" class="node"><title>MW</title>
<ellipse fill="LightBlue" stroke="blue" cx="243" cy="-18" rx="27" ry="18"/>
<text text-anchor="middle" x="243" y="-13.8" font-family="Helvetica,sans-Serif" font-size="14.00">MW</text>
</g>
<!-- RYW -->
<g id="node9" class="node"><title>RYW</title>
<ellipse fill="LemonChiffon" stroke="Gold" stroke-width="3" cx="391" cy="-18" rx="30.6667" ry="18"/>
<text text-anchor="middle" x="391" y="-13.8" font-family="Helvetica,sans-Serif" font-size="14.00">RYW</text>
</g>
<!-- PRAM -->
<g id="node10" class="node"><title>PRAM</title>
<ellipse fill="LemonChiffon" stroke="Gold" stroke-width="3" cx="304" cy="-90" rx="35.8147" ry="18"/>
<text text-anchor="middle" x="304" y="-85.8" font-family="Helvetica,sans-Serif" font-size="14.00">PRAM</text>
</g>
<!-- PRAM&#45;&gt;MR -->
<g id="edge19" class="edge"><title>PRAM&#45;&gt;MR</title>
<path fill="none" stroke="black" d="M306.719,-71.6966C307.931,-63.9827 309.388,-54.7125 310.739,-46.1124"/>
<polygon fill="black" stroke="black" points="314.217,-46.5265 312.312,-36.1043 307.302,-45.4397 314.217,-46.5265"/>
</g>
<!-- PRAM&#45;&gt;MW -->
<g id="edge20" class="edge"><title>PRAM&#45;&gt;MW</title>
<path fill="none" stroke="black" d="M290.158,-73.1159C282.059,-63.8218 271.699,-51.9336 262.754,-41.6681"/>
<polygon fill="black" stroke="black" points="265.161,-39.1036 255.953,-33.8639 259.884,-43.7025 265.161,-39.1036"/>
</g>
<!-- PRAM&#45;&gt;RYW -->
<g id="edge12" class="edge"><title>PRAM&#45;&gt;RYW</title>
<path fill="none" stroke="black" d="M322.45,-74.1548C335.008,-64.0514 351.789,-50.549 365.605,-39.4329"/>
<polygon fill="black" stroke="black" points="368.162,-41.8673 373.76,-32.8716 363.774,-36.4135 368.162,-41.8673"/>
</g>
<!-- Causal -->
<g id="node11" class="node"><title>Causal</title>
<ellipse fill="LemonChiffon" stroke="Gold" stroke-width="3" cx="320" cy="-162" rx="37.7699" ry="18"/>
<text text-anchor="middle" x="320" y="-157.8" font-family="Helvetica,sans-Serif" font-size="14.00">Causal</text>
</g>
<!-- Causal&#45;&gt;WFR -->
<g id="edge18" class="edge"><title>Causal&#45;&gt;WFR</title>
<path fill="none" stroke="black" d="M335.091,-145.465C344.285,-136.001 356.184,-123.752 366.368,-113.268"/>
<polygon fill="black" stroke="black" points="368.96,-115.623 373.418,-106.011 363.939,-110.745 368.96,-115.623"/>
</g>
<!-- Causal&#45;&gt;PRAM -->
<g id="edge11" class="edge"><title>Causal&#45;&gt;PRAM</title>
<path fill="none" stroke="black" d="M316.127,-144.055C314.345,-136.261 312.188,-126.822 310.189,-118.079"/>
<polygon fill="black" stroke="black" points="313.589,-117.244 307.949,-108.275 306.765,-118.804 313.589,-117.244"/>
</g>
<!-- CS -->
<g id="node12" class="node"><title>CS</title>
<ellipse fill="Pink" stroke="red" stroke-width="4" cx="27" cy="-90" rx="27" ry="18"/>
<text text-anchor="middle" x="27" y="-85.8" font-family="Helvetica,sans-Serif" font-size="14.00">CS</text>
</g>
<!-- CS&#45;&gt;RC -->
<g id="edge13" class="edge"><title>CS&#45;&gt;RC</title>
<path fill="none" stroke="black" d="M27,-71.6966C27,-63.9827 27,-54.7125 27,-46.1124"/>
<polygon fill="black" stroke="black" points="30.5001,-46.1043 27,-36.1043 23.5001,-46.1044 30.5001,-46.1043"/>
</g>
<!-- RR -->
<g id="node13" class="node"><title>RR</title>
<ellipse fill="Pink" stroke="red" stroke-width="4" cx="95" cy="-162" rx="27" ry="18"/>
<text text-anchor="middle" x="95" y="-157.8" font-family="Helvetica,sans-Serif" font-size="14.00">RR</text>
</g>
<!-- RR&#45;&gt;MAV -->
<g id="edge14" class="edge"><title>RR&#45;&gt;MAV</title>
<path fill="none" stroke="black" d="M104.984,-145.116C110.42,-136.469 117.267,-125.575 123.391,-115.833"/>
<polygon fill="black" stroke="black" points="126.391,-117.636 128.75,-107.307 120.465,-113.911 126.391,-117.636"/>
</g>
<!-- RR&#45;&gt;ICI -->
<g id="edge17" class="edge"><title>RR&#45;&gt;ICI</title>
<path fill="none" stroke="black" d="M92.1339,-143.781C89.8775,-124.958 88.8611,-94.4852 101,-72 109.815,-55.6713 126.075,-42.8875 140.707,-33.9694"/>
<polygon fill="black" stroke="black" points="142.587,-36.9261 149.525,-28.9191 139.108,-30.8517 142.587,-36.9261"/>
</g>
<!-- RR&#45;&gt;CS -->
<g id="edge7" class="edge"><title>RR&#45;&gt;CS</title>
<path fill="none" stroke="black" d="M80.9104,-146.496C71.4281,-136.735 58.7557,-123.69 48.0799,-112.7"/>
<polygon fill="black" stroke="black" points="50.55,-110.22 41.0716,-105.485 45.529,-115.097 50.55,-110.22"/>
</g>
<!-- SI -->
<g id="node14" class="node"><title>SI</title>
<ellipse fill="Pink" stroke="red" stroke-width="4" cx="176" cy="-162" rx="27" ry="18"/>
<text text-anchor="middle" x="176" y="-157.8" font-family="Helvetica,sans-Serif" font-size="14.00">SI</text>
</g>
<!-- SI&#45;&gt;MAV -->
<g id="edge15" class="edge"><title>SI&#45;&gt;MAV</title>
<path fill="none" stroke="black" d="M167.418,-144.765C162.999,-136.404 157.508,-126.016 152.535,-116.606"/>
<polygon fill="black" stroke="black" points="155.559,-114.839 147.792,-107.633 149.371,-118.11 155.559,-114.839"/>
</g>
<!-- SI&#45;&gt;PCI -->
<g id="edge16" class="edge"><title>SI&#45;&gt;PCI</title>
<path fill="none" stroke="black" d="M184.582,-144.765C189.065,-136.283 194.651,-125.714 199.681,-116.197"/>
<polygon fill="black" stroke="black" points="202.886,-117.624 204.465,-107.147 196.698,-114.353 202.886,-117.624"/>
</g>
<!-- OSR -->
<g id="node15" class="node"><title>OSR</title>
<ellipse fill="Pink" stroke="red" stroke-width="4" cx="176" cy="-234" rx="55.6456" ry="18"/>
<text text-anchor="middle" x="176" y="-229.8" font-family="Helvetica,sans-Serif" font-size="14.00">Serializable</text>
</g>
<!-- OSR&#45;&gt;RR -->
<g id="edge6" class="edge"><title>OSR&#45;&gt;RR</title>
<path fill="none" stroke="black" d="M157.213,-216.765C145.712,-206.825 130.894,-194.02 118.605,-183.399"/>
<polygon fill="black" stroke="black" points="120.809,-180.678 110.955,-176.788 116.232,-185.975 120.809,-180.678"/>
</g>
<!-- OSR&#45;&gt;SI -->
<g id="edge8" class="edge"><title>OSR&#45;&gt;SI</title>
<path fill="none" stroke="black" d="M176,-215.697C176,-207.983 176,-198.712 176,-190.112"/>
<polygon fill="black" stroke="black" points="179.5,-190.104 176,-180.104 172.5,-190.104 179.5,-190.104"/>
</g>
<!-- Recency -->
<g id="node16" class="node"><title>Recency</title>
<ellipse fill="Pink" stroke="red" stroke-width="4" cx="484" cy="-18" rx="44.5269" ry="18"/>
<text text-anchor="middle" x="484" y="-13.8" font-family="Helvetica,sans-Serif" font-size="14.00">Recency</text>
</g>
<!-- Safe -->
<g id="node17" class="node"><title>Safe</title>
<ellipse fill="Pink" stroke="red" stroke-width="4" cx="465" cy="-90" rx="28.0994" ry="18"/>
<text text-anchor="middle" x="465" y="-85.8" font-family="Helvetica,sans-Serif" font-size="14.00">Safe</text>
</g>
<!-- Safe&#45;&gt;RYW -->
<g id="edge9" class="edge"><title>Safe&#45;&gt;RYW</title>
<path fill="none" stroke="black" d="M449.667,-74.496C439.318,-64.7066 425.478,-51.6145 413.839,-40.6048"/>
<polygon fill="black" stroke="black" points="416.238,-38.0557 406.568,-33.7263 411.427,-43.141 416.238,-38.0557"/>
</g>
<!-- Safe&#45;&gt;Recency -->
<g id="edge4" class="edge"><title>Safe&#45;&gt;Recency</title>
<path fill="none" stroke="black" d="M469.599,-72.055C471.715,-64.2609 474.277,-54.8219 476.65,-46.0789"/>
<polygon fill="black" stroke="black" points="480.069,-46.843 479.311,-36.2753 473.314,-45.0093 480.069,-46.843"/>
</g>
<!-- Regular -->
<g id="node18" class="node"><title>Regular</title>
<ellipse fill="Pink" stroke="red" stroke-width="4" cx="449" cy="-162" rx="41.1526" ry="18"/>
<text text-anchor="middle" x="449" y="-157.8" font-family="Helvetica,sans-Serif" font-size="14.00">Regular</text>
</g>
<!-- Regular&#45;&gt;Safe -->
<g id="edge3" class="edge"><title>Regular&#45;&gt;Safe</title>
<path fill="none" stroke="black" d="M452.873,-144.055C454.655,-136.261 456.812,-126.822 458.811,-118.079"/>
<polygon fill="black" stroke="black" points="462.235,-118.804 461.051,-108.275 455.411,-117.244 462.235,-118.804"/>
</g>
<!-- Linearizable -->
<g id="node19" class="node"><title>Linearizable</title>
<ellipse fill="Pink" stroke="red" stroke-width="4" cx="320" cy="-234" rx="57.5925" ry="18"/>
<text text-anchor="middle" x="320" y="-229.8" font-family="Helvetica,sans-Serif" font-size="14.00">Linearizable</text>
</g>
<!-- Linearizable&#45;&gt;Causal -->
<g id="edge10" class="edge"><title>Linearizable&#45;&gt;Causal</title>
<path fill="none" stroke="black" d="M320,-215.697C320,-207.983 320,-198.712 320,-190.112"/>
<polygon fill="black" stroke="black" points="323.5,-190.104 320,-180.104 316.5,-190.104 323.5,-190.104"/>
</g>
<!-- Linearizable&#45;&gt;Regular -->
<g id="edge2" class="edge"><title>Linearizable&#45;&gt;Regular</title>
<path fill="none" stroke="black" d="M347.674,-217.983C367.407,-207.275 394.057,-192.814 415.073,-181.41"/>
<polygon fill="black" stroke="black" points="416.872,-184.416 423.992,-176.57 413.534,-178.263 416.872,-184.416"/>
</g>
<!-- StrongOSR -->
<g id="node20" class="node"><title>StrongOSR</title>
<ellipse fill="Pink" stroke="red" stroke-width="4" cx="248" cy="-306" rx="89.4899" ry="18"/>
<text text-anchor="middle" x="248" y="-301.8" font-family="Helvetica,sans-Serif" font-size="14.00">Strongly serializable</text>
</g>
<!-- StrongOSR&#45;&gt;OSR -->
<g id="edge5" class="edge"><title>StrongOSR&#45;&gt;OSR</title>
<path fill="none" stroke="black" d="M230.571,-288.055C221.417,-279.156 210.058,-268.112 200.077,-258.408"/>
<polygon fill="black" stroke="black" points="202.383,-255.768 192.773,-251.307 197.503,-260.787 202.383,-255.768"/>
</g>
<!-- StrongOSR&#45;&gt;Linearizable -->
<g id="edge1" class="edge"><title>StrongOSR&#45;&gt;Linearizable</title>
<path fill="none" stroke="black" d="M265.429,-288.055C274.583,-279.156 285.942,-268.112 295.923,-258.408"/>
<polygon fill="black" stroke="black" points="298.497,-260.787 303.227,-251.307 293.617,-255.768 298.497,-260.787"/>
</g>
</g>
</svg>
