<?xml version="1.0" encoding="UTF-8" standalone="no"?>
<!DOCTYPE svg PUBLIC "-//W3C//DTD SVG 1.1//EN"
 "http://www.w3.org/Graphics/SVG/1.1/DTD/svg11.dtd">
<!-- Generated by graphviz version 2.38.0 (20140413.2041)
 -->
<!-- Title: ConsistencyModels Pages: 1 -->
<svg width="537pt" height="332pt"
 viewBox="0.00 0.00 536.51 332.00" xmlns="http://www.w3.org/2000/svg" xmlns:xlink="http://www.w3.org/1999/xlink">
<g id="graph0" class="graph" transform="scale(1 1) rotate(0) translate(4 328)">
<title>ConsistencyModels</title>
<!-- RU -->
<g id="node1" class="node"><title>RU</title>
<ellipse fill="LightBlue" stroke="blue" cx="99" cy="-18" rx="27" ry="18"/>
<text text-anchor="middle" x="99" y="-13.8" font-family="Helvetica,sans-Serif" font-size="14.00">RU</text>
</g>
<!-- RC -->
<g id="node2" class="node"><title>RC</title>
<ellipse fill="LightBlue" stroke="blue" cx="27" cy="-18" rx="27" ry="18"/>
<text text-anchor="middle" x="27" y="-13.8" font-family="Helvetica,sans-Serif" font-size="14.00">RC</text>
</g>
<!-- RC&#45;&gt;RU -->
<g id="edge22" class="edge"><title>RC&#45;&gt;RU</title>
<path fill="none" stroke="black" d="M54,-18C56.6147,-18 59.2295,-18 61.8442,-18"/>
<polygon fill="black" stroke="black" points="61.9297,-21.5001 71.9297,-18 61.9297,-14.5001 61.9297,-21.5001"/>
</g>
<!-- MAV -->
<g id="node3" class="node"><title>MAV</title>
<ellipse fill="LightBlue" stroke="blue" cx="139" cy="-90" rx="28.7375" ry="18"/>
<text text-anchor="middle" x="139" y="-85.8" font-family="Helvetica,sans-Serif" font-size="14.00">MAV</text>
</g>
<!-- MAV&#45;&gt;RC -->
<g id="edge21" class="edge"><title>MAV&#45;&gt;RC</title>
<path fill="none" stroke="black" d="M119.491,-76.8069C101.664,-65.6653 75.0995,-49.0622 55.0069,-36.5043"/>
<polygon fill="black" stroke="black" points="56.6204,-33.3854 46.2853,-31.0533 52.9103,-39.3214 56.6204,-33.3854"/>
</g>
<!-- ICI -->
<g id="node4" class="node"><title>ICI</title>
<ellipse fill="LightBlue" stroke="blue" cx="171" cy="-18" rx="27" ry="18"/>
<text text-anchor="middle" x="171" y="-13.8" font-family="Helvetica,sans-Serif" font-size="14.00">ICI</text>
</g>
<!-- PCI -->
<g id="node5" class="node"><title>PCI</title>
<ellipse fill="LightBlue" stroke="blue" cx="213" cy="-90" rx="27" ry="18"/>
<text text-anchor="middle" x="213" y="-85.8" font-family="Helvetica,sans-Serif" font-size="14.00">PCI</text>
</g>
<!-- PCI&#45;&gt;ICI -->
<g id="edge23" class="edge"><title>PCI&#45;&gt;ICI</title>
<path fill="none" stroke="black" d="M203.47,-73.1159C198.334,-64.5567 191.878,-53.7974 186.079,-44.1316"/>
<polygon fill="black" stroke="black" points="188.93,-42.0812 180.784,-35.307 182.928,-45.6827 188.93,-42.0812"/>
</g>
<!-- WFR -->
<g id="node6" class="node"><title>WFR</title>
<ellipse fill="LightBlue" stroke="blue" cx="389" cy="-90" rx="30.4862" ry="18"/>
<text text-anchor="middle" x="389" y="-85.8" font-family="Helvetica,sans-Serif" font-size="14.00">WFR</text>
</g>
<!-- MR -->
<g id="node7" class="node"><title>MR</title>
<ellipse fill="LightBlue" stroke="blue" cx="315" cy="-18" rx="27" ry="18"/>
<text text-anchor="middle" x="315" y="-13.8" font-family="Helvetica,sans-Serif" font-size="14.00">MR</text>
</g>
<!-- MW -->
<g id="node8" class="node"><title>MW</title>
<ellipse fill="LightBlue" stroke="blue" cx="243" cy="-18" rx="27" ry="18"/>
<text text-anchor="middle" x="243" y="-13.8" font-family="Helvetica,sans-Serif" font-size="14.00">MW</text>
</g>
<!-- RYW -->
<g id="node9" class="node"><title>RYW</title>
<ellipse fill="LemonChiffon" stroke="Gold" stroke-width="3" cx="391" cy="-18" rx="30.6667" ry="18"/>
<text text-anchor="middle" x="391" y="-13.8" font-family="Helvetica,sans-Serif" font-size="14.00">RYW</text>
</g>
<!-- PRAM -->
<g id="node10" class="node"><title>PRAM</title>
<ellipse fill="LemonChiffon" stroke="Gold" stroke-width="3" cx="305" cy="-90" rx="35.8147" ry="18"/>
<text text-anchor="middle" x="305" y="-85.8" font-family="Helvetica,sans-Serif" font-size="14.00">PRAM</text>
</g>
<!-- PRAM&#45;&gt;MR -->
<g id="edge19" class="edge"><title>PRAM&#45;&gt;MR</title>
<path fill="none" stroke="black" d="M307.472,-71.6966C308.574,-63.9827 309.898,-54.7125 311.127,-46.1124"/>
<polygon fill="black" stroke="black" points="314.607,-46.4988 312.557,-36.1043 307.677,-45.5088 314.607,-46.4988"/>
</g>
<!-- PRAM&#45;&gt;MW -->
<g id="edge20" class="edge"><title>PRAM&#45;&gt;MW</title>
<path fill="none" stroke="black" d="M290.931,-73.1159C282.618,-63.7298 271.961,-51.6979 262.808,-41.3637"/>
<polygon fill="black" stroke="black" points="265.416,-39.0292 256.165,-33.8639 260.176,-43.6705 265.416,-39.0292"/>
</g>
<!-- PRAM&#45;&gt;RYW -->
<g id="edge12" class="edge"><title>PRAM&#45;&gt;RYW</title>
<path fill="none" stroke="black" d="M323.238,-74.1548C335.569,-64.1179 352.022,-50.7265 365.627,-39.6526"/>
<polygon fill="black" stroke="black" points="368.122,-42.1349 373.668,-33.1076 363.703,-36.7059 368.122,-42.1349"/>
</g>
<!-- Causal -->
<g id="node11" class="node"><title>Causal</title>
<ellipse fill="LemonChiffon" stroke="Gold" stroke-width="3" cx="355" cy="-162" rx="37.7699" ry="18"/>
<text text-anchor="middle" x="355" y="-157.8" font-family="Helvetica,sans-Serif" font-size="14.00">Causal</text>
</g>
<!-- Causal&#45;&gt;WFR -->
<g id="edge18" class="edge"><title>Causal&#45;&gt;WFR</title>
<path fill="none" stroke="black" d="M363.058,-144.411C367.08,-136.129 372.036,-125.925 376.536,-116.662"/>
<polygon fill="black" stroke="black" points="379.779,-117.994 381,-107.47 373.483,-114.936 379.779,-117.994"/>
</g>
<!-- Causal&#45;&gt;PRAM -->
<g id="edge11" class="edge"><title>Causal&#45;&gt;PRAM</title>
<path fill="none" stroke="black" d="M343.403,-144.765C337.156,-136.018 329.323,-125.052 322.363,-115.308"/>
<polygon fill="black" stroke="black" points="325.194,-113.25 316.534,-107.147 319.498,-117.319 325.194,-113.25"/>
</g>
<!-- CS -->
<g id="node12" class="node"><title>CS</title>
<ellipse fill="Pink" stroke="red" stroke-width="4" cx="27" cy="-90" rx="27" ry="18"/>
<text text-anchor="middle" x="27" y="-85.8" font-family="Helvetica,sans-Serif" font-size="14.00">CS</text>
</g>
<!-- CS&#45;&gt;RC -->
<g id="edge13" class="edge"><title>CS&#45;&gt;RC</title>
<path fill="none" stroke="black" d="M27,-71.6966C27,-63.9827 27,-54.7125 27,-46.1124"/>
<polygon fill="black" stroke="black" points="30.5001,-46.1043 27,-36.1043 23.5001,-46.1044 30.5001,-46.1043"/>
</g>
<!-- RR -->
<g id="node13" class="node"><title>RR</title>
<ellipse fill="Pink" stroke="red" stroke-width="4" cx="87" cy="-162" rx="27" ry="18"/>
<text text-anchor="middle" x="87" y="-157.8" font-family="Helvetica,sans-Serif" font-size="14.00">RR</text>
</g>
<!-- RR&#45;&gt;MAV -->
<g id="edge14" class="edge"><title>RR&#45;&gt;MAV</title>
<path fill="none" stroke="black" d="M98.5405,-145.465C105.273,-136.402 113.901,-124.786 121.46,-114.612"/>
<polygon fill="black" stroke="black" points="124.338,-116.606 127.492,-106.492 118.719,-112.432 124.338,-116.606"/>
</g>
<!-- RR&#45;&gt;ICI -->
<g id="edge17" class="edge"><title>RR&#45;&gt;ICI</title>
<path fill="none" stroke="black" d="M86.0297,-143.995C85.7368,-125.086 87.6644,-94.2784 101,-72 110.466,-56.1866 126.604,-43.4881 141.001,-34.4896"/>
<polygon fill="black" stroke="black" points="142.837,-37.4707 149.665,-29.3701 139.275,-31.4442 142.837,-37.4707"/>
</g>
<!-- RR&#45;&gt;CS -->
<g id="edge7" class="edge"><title>RR&#45;&gt;CS</title>
<path fill="none" stroke="black" d="M73.9809,-145.811C65.9611,-136.455 55.5273,-124.282 46.5301,-113.785"/>
<polygon fill="black" stroke="black" points="49.1591,-111.474 39.9937,-106.159 43.8442,-116.03 49.1591,-111.474"/>
</g>
<!-- SI -->
<g id="node14" class="node"><title>SI</title>
<ellipse fill="Pink" stroke="red" stroke-width="4" cx="181" cy="-162" rx="27" ry="18"/>
<text text-anchor="middle" x="181" y="-157.8" font-family="Helvetica,sans-Serif" font-size="14.00">SI</text>
</g>
<!-- SI&#45;&gt;MAV -->
<g id="edge15" class="edge"><title>SI&#45;&gt;MAV</title>
<path fill="none" stroke="black" d="M171.47,-145.116C166.334,-136.557 159.878,-125.797 154.079,-116.132"/>
<polygon fill="black" stroke="black" points="156.93,-114.081 148.784,-107.307 150.928,-117.683 156.93,-114.081"/>
</g>
<!-- SI&#45;&gt;PCI -->
<g id="edge16" class="edge"><title>SI&#45;&gt;PCI</title>
<path fill="none" stroke="black" d="M188.584,-144.411C192.369,-136.129 197.034,-125.925 201.269,-116.662"/>
<polygon fill="black" stroke="black" points="204.496,-118.02 205.471,-107.47 198.13,-115.11 204.496,-118.02"/>
</g>
<!-- OSR -->
<g id="node15" class="node"><title>OSR</title>
<ellipse fill="Pink" stroke="red" stroke-width="4" cx="181" cy="-234" rx="95.2865" ry="18"/>
<text text-anchor="middle" x="181" y="-229.8" font-family="Helvetica,sans-Serif" font-size="14.00">One&#45;copy serializable</text>
</g>
<!-- OSR&#45;&gt;RR -->
<g id="edge6" class="edge"><title>OSR&#45;&gt;RR</title>
<path fill="none" stroke="black" d="M158.723,-216.411C144.836,-206.069 126.922,-192.729 112.472,-181.969"/>
<polygon fill="black" stroke="black" points="114.532,-179.139 104.421,-175.973 110.351,-184.753 114.532,-179.139"/>
</g>
<!-- OSR&#45;&gt;SI -->
<g id="edge8" class="edge"><title>OSR&#45;&gt;SI</title>
<path fill="none" stroke="black" d="M181,-215.697C181,-207.983 181,-198.712 181,-190.112"/>
<polygon fill="black" stroke="black" points="184.5,-190.104 181,-180.104 177.5,-190.104 184.5,-190.104"/>
</g>
<!-- Recency -->
<g id="node16" class="node"><title>Recency</title>
<ellipse fill="Pink" stroke="red" stroke-width="4" cx="484" cy="-18" rx="44.5269" ry="18"/>
<text text-anchor="middle" x="484" y="-13.8" font-family="Helvetica,sans-Serif" font-size="14.00">Recency</text>
</g>
<!-- Safe -->
<g id="node17" class="node"><title>Safe</title>
<ellipse fill="Pink" stroke="red" stroke-width="4" cx="466" cy="-90" rx="28.0994" ry="18"/>
<text text-anchor="middle" x="466" y="-85.8" font-family="Helvetica,sans-Serif" font-size="14.00">Safe</text>
</g>
<!-- Safe&#45;&gt;RYW -->
<g id="edge9" class="edge"><title>Safe&#45;&gt;RYW</title>
<path fill="none" stroke="black" d="M450.46,-74.496C439.971,-64.7066 425.944,-51.6145 414.148,-40.6048"/>
<polygon fill="black" stroke="black" points="416.477,-37.9908 406.778,-33.7263 411.701,-43.1082 416.477,-37.9908"/>
</g>
<!-- Safe&#45;&gt;Recency -->
<g id="edge4" class="edge"><title>Safe&#45;&gt;Recency</title>
<path fill="none" stroke="black" d="M470.357,-72.055C472.361,-64.2609 474.789,-54.8219 477.037,-46.0789"/>
<polygon fill="black" stroke="black" points="480.457,-46.8319 479.558,-36.2753 473.678,-45.0886 480.457,-46.8319"/>
</g>
<!-- Regular -->
<g id="node18" class="node"><title>Regular</title>
<ellipse fill="Pink" stroke="red" stroke-width="4" cx="463" cy="-162" rx="41.1526" ry="18"/>
<text text-anchor="middle" x="463" y="-157.8" font-family="Helvetica,sans-Serif" font-size="14.00">Regular</text>
</g>
<!-- Regular&#45;&gt;Safe -->
<g id="edge3" class="edge"><title>Regular&#45;&gt;Safe</title>
<path fill="none" stroke="black" d="M463.742,-143.697C464.072,-135.983 464.469,-126.712 464.838,-118.112"/>
<polygon fill="black" stroke="black" points="468.335,-118.245 465.267,-108.104 461.342,-117.945 468.335,-118.245"/>
</g>
<!-- Linearizable -->
<g id="node19" class="node"><title>Linearizable</title>
<ellipse fill="Pink" stroke="red" stroke-width="4" cx="355" cy="-234" rx="57.5925" ry="18"/>
<text text-anchor="middle" x="355" y="-229.8" font-family="Helvetica,sans-Serif" font-size="14.00">Linearizable</text>
</g>
<!-- Linearizable&#45;&gt;Causal -->
<g id="edge10" class="edge"><title>Linearizable&#45;&gt;Causal</title>
<path fill="none" stroke="black" d="M355,-215.697C355,-207.983 355,-198.712 355,-190.112"/>
<polygon fill="black" stroke="black" points="358.5,-190.104 355,-180.104 351.5,-190.104 358.5,-190.104"/>
</g>
<!-- Linearizable&#45;&gt;Regular -->
<g id="edge2" class="edge"><title>Linearizable&#45;&gt;Regular</title>
<path fill="none" stroke="black" d="M378.969,-217.465C394.739,-207.243 415.519,-193.775 432.469,-182.789"/>
<polygon fill="black" stroke="black" points="434.449,-185.676 440.937,-177.3 430.642,-179.802 434.449,-185.676"/>
</g>
<!-- StrongOSR -->
<g id="node20" class="node"><title>StrongOSR</title>
<ellipse fill="Pink" stroke="red" stroke-width="4" cx="268" cy="-306" rx="89.4899" ry="18"/>
<text text-anchor="middle" x="268" y="-301.8" font-family="Helvetica,sans-Serif" font-size="14.00">Strongly serializable</text>
</g>
<!-- StrongOSR&#45;&gt;OSR -->
<g id="edge5" class="edge"><title>StrongOSR&#45;&gt;OSR</title>
<path fill="none" stroke="black" d="M247.382,-288.411C236.088,-279.324 221.917,-267.922 209.572,-257.989"/>
<polygon fill="black" stroke="black" points="211.757,-255.254 201.771,-251.713 207.368,-260.708 211.757,-255.254"/>
</g>
<!-- StrongOSR&#45;&gt;Linearizable -->
<g id="edge1" class="edge"><title>StrongOSR&#45;&gt;Linearizable</title>
<path fill="none" stroke="black" d="M288.618,-288.411C300.159,-279.125 314.705,-267.421 327.237,-257.338"/>
<polygon fill="black" stroke="black" points="329.532,-259.984 335.129,-250.988 325.144,-254.53 329.532,-259.984"/>
</g>
</g>
</svg>
