<?xml version="1.0" encoding="UTF-8" standalone="no"?>
<!DOCTYPE svg PUBLIC "-//W3C//DTD SVG 1.1//EN"
 "http://www.w3.org/Graphics/SVG/1.1/DTD/svg11.dtd">
<!-- Generated by graphviz version 2.38.0 (20140413.2041)
 -->
<!-- Title: ConsistencyModels Pages: 1 -->
<svg width="537pt" height="332pt"
 viewBox="0.00 0.00 536.51 332.00" xmlns="http://www.w3.org/2000/svg" xmlns:xlink="http://www.w3.org/1999/xlink">
<g id="graph0" class="graph" transform="scale(1 1) rotate(0) translate(4 328)">
<title>ConsistencyModels</title>
<!-- RU -->
<g id="node1" class="node"><title>RU</title>
<ellipse fill="PaleGreen" stroke="green" cx="99" cy="-18" rx="27" ry="18"/>
<text text-anchor="middle" x="99" y="-13.8" font-family="Helvetica,sans-Serif" font-size="14.00">RU</text>
</g>
<!-- RC -->
<g id="node2" class="node"><title>RC</title>
<ellipse fill="PaleGreen" stroke="green" cx="27" cy="-18" rx="27" ry="18"/>
<text text-anchor="middle" x="27" y="-13.8" font-family="Helvetica,sans-Serif" font-size="14.00">RC</text>
</g>
<!-- RC&#45;&gt;RU -->
<g id="edge22" class="edge"><title>RC&#45;&gt;RU</title>
<path fill="none" stroke="black" d="M54,-18C56.6147,-18 59.2295,-18 61.8442,-18"/>
<polygon fill="black" stroke="black" points="61.9297,-21.5001 71.9297,-18 61.9297,-14.5001 61.9297,-21.5001"/>
</g>
<!-- MAV -->
<g id="node3" class="node"><title>MAV</title>
<ellipse fill="PaleGreen" stroke="green" cx="139" cy="-90" rx="28.7375" ry="18"/>
<text text-anchor="middle" x="139" y="-85.8" font-family="Helvetica,sans-Serif" font-size="14.00">MAV</text>
</g>
<!-- MAV&#45;&gt;RC -->
<g id="edge21" class="edge"><title>MAV&#45;&gt;RC</title>
<path fill="none" stroke="black" d="M119.491,-76.8069C101.664,-65.6653 75.0995,-49.0622 55.0069,-36.5043"/>
<polygon fill="black" stroke="black" points="56.6204,-33.3854 46.2853,-31.0533 52.9103,-39.3214 56.6204,-33.3854"/>
</g>
<!-- ICI -->
<g id="node4" class="node"><title>ICI</title>
<ellipse fill="PaleGreen" stroke="green" cx="171" cy="-18" rx="27" ry="18"/>
<text text-anchor="middle" x="171" y="-13.8" font-family="Helvetica,sans-Serif" font-size="14.00">ICI</text>
</g>
<!-- PCI -->
<g id="node5" class="node"><title>PCI</title>
<ellipse fill="PaleGreen" stroke="green" cx="213" cy="-90" rx="27" ry="18"/>
<text text-anchor="middle" x="213" y="-85.8" font-family="Helvetica,sans-Serif" font-size="14.00">PCI</text>
</g>
<!-- PCI&#45;&gt;ICI -->
<g id="edge23" class="edge"><title>PCI&#45;&gt;ICI</title>
<path fill="none" stroke="black" d="M203.47,-73.1159C198.334,-64.5567 191.878,-53.7974 186.079,-44.1316"/>
<polygon fill="black" stroke="black" points="188.93,-42.0812 180.784,-35.307 182.928,-45.6827 188.93,-42.0812"/>
</g>
<!-- WFR -->
<g id="node6" class="node"><title>WFR</title>
<ellipse fill="PaleGreen" stroke="green" cx="388" cy="-90" rx="30.4862" ry="18"/>
<text text-anchor="middle" x="388" y="-85.8" font-family="Helvetica,sans-Serif" font-size="14.00">WFR</text>
</g>
<!-- MR -->
<g id="node7" class="node"><title>MR</title>
<ellipse fill="PaleGreen" stroke="green" cx="315" cy="-18" rx="27" ry="18"/>
<text text-anchor="middle" x="315" y="-13.8" font-family="Helvetica,sans-Serif" font-size="14.00">MR</text>
</g>
<!-- MW -->
<g id="node8" class="node"><title>MW</title>
<ellipse fill="PaleGreen" stroke="green" cx="243" cy="-18" rx="27" ry="18"/>
<text text-anchor="middle" x="243" y="-13.8" font-family="Helvetica,sans-Serif" font-size="14.00">MW</text>
</g>
<!-- RYW -->
<g id="node9" class="node"><title>RYW</title>
<ellipse fill="LemonChiffon" stroke="Gold" cx="391" cy="-18" rx="30.6667" ry="18"/>
<text text-anchor="middle" x="391" y="-13.8" font-family="Helvetica,sans-Serif" font-size="14.00">RYW</text>
</g>
<!-- PRAM -->
<g id="node10" class="node"><title>PRAM</title>
<ellipse fill="LemonChiffon" stroke="Gold" cx="304" cy="-90" rx="35.8147" ry="18"/>
<text text-anchor="middle" x="304" y="-85.8" font-family="Helvetica,sans-Serif" font-size="14.00">PRAM</text>
</g>
<!-- PRAM&#45;&gt;MR -->
<g id="edge19" class="edge"><title>PRAM&#45;&gt;MR</title>
<path fill="none" stroke="black" d="M306.719,-71.6966C307.931,-63.9827 309.388,-54.7125 310.739,-46.1124"/>
<polygon fill="black" stroke="black" points="314.217,-46.5265 312.312,-36.1043 307.302,-45.4397 314.217,-46.5265"/>
</g>
<!-- PRAM&#45;&gt;MW -->
<g id="edge20" class="edge"><title>PRAM&#45;&gt;MW</title>
<path fill="none" stroke="black" d="M290.158,-73.1159C282.059,-63.8218 271.699,-51.9336 262.754,-41.6681"/>
<polygon fill="black" stroke="black" points="265.161,-39.1036 255.953,-33.8639 259.884,-43.7025 265.161,-39.1036"/>
</g>
<!-- PRAM&#45;&gt;RYW -->
<g id="edge12" class="edge"><title>PRAM&#45;&gt;RYW</title>
<path fill="none" stroke="black" d="M322.45,-74.1548C335.008,-64.0514 351.789,-50.549 365.605,-39.4329"/>
<polygon fill="black" stroke="black" points="368.162,-41.8673 373.76,-32.8716 363.774,-36.4135 368.162,-41.8673"/>
</g>
<!-- Causal -->
<g id="node11" class="node"><title>Causal</title>
<ellipse fill="LemonChiffon" stroke="Gold" cx="311" cy="-162" rx="37.7699" ry="18"/>
<text text-anchor="middle" x="311" y="-157.8" font-family="Helvetica,sans-Serif" font-size="14.00">Causal</text>
</g>
<!-- Causal&#45;&gt;WFR -->
<g id="edge18" class="edge"><title>Causal&#45;&gt;WFR</title>
<path fill="none" stroke="black" d="M327.708,-145.811C338.52,-135.982 352.752,-123.044 364.673,-112.206"/>
<polygon fill="black" stroke="black" points="367.069,-114.758 372.114,-105.442 362.36,-109.579 367.069,-114.758"/>
</g>
<!-- Causal&#45;&gt;PRAM -->
<g id="edge11" class="edge"><title>Causal&#45;&gt;PRAM</title>
<path fill="none" stroke="black" d="M309.27,-143.697C308.498,-135.983 307.571,-126.712 306.711,-118.112"/>
<polygon fill="black" stroke="black" points="310.188,-117.706 305.71,-108.104 303.223,-118.403 310.188,-117.706"/>
</g>
<!-- CS -->
<g id="node12" class="node"><title>CS</title>
<ellipse fill="Pink" stroke="red" cx="27" cy="-90" rx="27" ry="18"/>
<text text-anchor="middle" x="27" y="-85.8" font-family="Helvetica,sans-Serif" font-size="14.00">CS</text>
</g>
<!-- CS&#45;&gt;RC -->
<g id="edge13" class="edge"><title>CS&#45;&gt;RC</title>
<path fill="none" stroke="black" d="M27,-71.6966C27,-63.9827 27,-54.7125 27,-46.1124"/>
<polygon fill="black" stroke="black" points="30.5001,-46.1043 27,-36.1043 23.5001,-46.1044 30.5001,-46.1043"/>
</g>
<!-- RR -->
<g id="node13" class="node"><title>RR</title>
<ellipse fill="Pink" stroke="red" cx="97" cy="-162" rx="27" ry="18"/>
<text text-anchor="middle" x="97" y="-157.8" font-family="Helvetica,sans-Serif" font-size="14.00">RR</text>
</g>
<!-- RR&#45;&gt;MAV -->
<g id="edge14" class="edge"><title>RR&#45;&gt;MAV</title>
<path fill="none" stroke="black" d="M106.53,-145.116C111.666,-136.557 118.122,-125.797 123.921,-116.132"/>
<polygon fill="black" stroke="black" points="127.072,-117.683 129.216,-107.307 121.07,-114.081 127.072,-117.683"/>
</g>
<!-- RR&#45;&gt;ICI -->
<g id="edge17" class="edge"><title>RR&#45;&gt;ICI</title>
<path fill="none" stroke="black" d="M93.6568,-143.821C90.8985,-125.033 89.1286,-94.5913 101,-72 109.632,-55.5736 125.883,-42.785 140.555,-33.8888"/>
<polygon fill="black" stroke="black" points="142.443,-36.8417 149.405,-28.855 138.982,-30.7572 142.443,-36.8417"/>
</g>
<!-- RR&#45;&gt;CS -->
<g id="edge7" class="edge"><title>RR&#45;&gt;CS</title>
<path fill="none" stroke="black" d="M82.496,-146.496C72.7348,-136.735 59.6897,-123.69 48.6999,-112.7"/>
<polygon fill="black" stroke="black" points="51.0314,-110.082 41.4855,-105.485 46.0817,-115.031 51.0314,-110.082"/>
</g>
<!-- SI -->
<g id="node14" class="node"><title>SI</title>
<ellipse fill="Pink" stroke="red" cx="191" cy="-162" rx="27" ry="18"/>
<text text-anchor="middle" x="191" y="-157.8" font-family="Helvetica,sans-Serif" font-size="14.00">SI</text>
</g>
<!-- SI&#45;&gt;MAV -->
<g id="edge15" class="edge"><title>SI&#45;&gt;MAV</title>
<path fill="none" stroke="black" d="M179.46,-145.465C172.727,-136.402 164.099,-124.786 156.54,-114.612"/>
<polygon fill="black" stroke="black" points="159.281,-112.432 150.508,-106.492 153.662,-116.606 159.281,-112.432"/>
</g>
<!-- SI&#45;&gt;PCI -->
<g id="edge16" class="edge"><title>SI&#45;&gt;PCI</title>
<path fill="none" stroke="black" d="M196.326,-144.055C198.839,-136.059 201.896,-126.331 204.703,-117.4"/>
<polygon fill="black" stroke="black" points="208.064,-118.378 207.723,-107.789 201.386,-116.28 208.064,-118.378"/>
</g>
<!-- OSR -->
<g id="node15" class="node"><title>OSR</title>
<ellipse fill="Pink" stroke="red" cx="191" cy="-234" rx="29.0429" ry="18"/>
<text text-anchor="middle" x="191" y="-229.8" font-family="Helvetica,sans-Serif" font-size="14.00">OSR</text>
</g>
<!-- OSR&#45;&gt;RR -->
<g id="edge6" class="edge"><title>OSR&#45;&gt;RR</title>
<path fill="none" stroke="black" d="M172.876,-219.503C158.651,-208.911 138.666,-194.028 122.776,-182.195"/>
<polygon fill="black" stroke="black" points="124.544,-179.147 114.433,-175.982 120.363,-184.762 124.544,-179.147"/>
</g>
<!-- OSR&#45;&gt;SI -->
<g id="edge8" class="edge"><title>OSR&#45;&gt;SI</title>
<path fill="none" stroke="black" d="M191,-215.697C191,-207.983 191,-198.712 191,-190.112"/>
<polygon fill="black" stroke="black" points="194.5,-190.104 191,-180.104 187.5,-190.104 194.5,-190.104"/>
</g>
<!-- Recency -->
<g id="node16" class="node"><title>Recency</title>
<ellipse fill="Pink" stroke="red" cx="484" cy="-18" rx="44.5269" ry="18"/>
<text text-anchor="middle" x="484" y="-13.8" font-family="Helvetica,sans-Serif" font-size="14.00">Recency</text>
</g>
<!-- Safe -->
<g id="node17" class="node"><title>Safe</title>
<ellipse fill="Pink" stroke="red" cx="465" cy="-90" rx="28.0994" ry="18"/>
<text text-anchor="middle" x="465" y="-85.8" font-family="Helvetica,sans-Serif" font-size="14.00">Safe</text>
</g>
<!-- Safe&#45;&gt;RYW -->
<g id="edge9" class="edge"><title>Safe&#45;&gt;RYW</title>
<path fill="none" stroke="black" d="M449.667,-74.496C439.318,-64.7066 425.478,-51.6145 413.839,-40.6048"/>
<polygon fill="black" stroke="black" points="416.238,-38.0557 406.568,-33.7263 411.427,-43.141 416.238,-38.0557"/>
</g>
<!-- Safe&#45;&gt;Recency -->
<g id="edge4" class="edge"><title>Safe&#45;&gt;Recency</title>
<path fill="none" stroke="black" d="M469.599,-72.055C471.715,-64.2609 474.277,-54.8219 476.65,-46.0789"/>
<polygon fill="black" stroke="black" points="480.069,-46.843 479.311,-36.2753 473.314,-45.0093 480.069,-46.843"/>
</g>
<!-- Regular -->
<g id="node18" class="node"><title>Regular</title>
<ellipse fill="Pink" stroke="red" cx="440" cy="-162" rx="41.1526" ry="18"/>
<text text-anchor="middle" x="440" y="-157.8" font-family="Helvetica,sans-Serif" font-size="14.00">Regular</text>
</g>
<!-- Regular&#45;&gt;Safe -->
<g id="edge3" class="edge"><title>Regular&#45;&gt;Safe</title>
<path fill="none" stroke="black" d="M446.052,-144.055C448.908,-136.059 452.382,-126.331 455.572,-117.4"/>
<polygon fill="black" stroke="black" points="458.937,-118.384 459.004,-107.789 452.344,-116.029 458.937,-118.384"/>
</g>
<!-- Linearizable -->
<g id="node19" class="node"><title>Linearizable</title>
<ellipse fill="Pink" stroke="red" cx="311" cy="-234" rx="57.5925" ry="18"/>
<text text-anchor="middle" x="311" y="-229.8" font-family="Helvetica,sans-Serif" font-size="14.00">Linearizable</text>
</g>
<!-- Linearizable&#45;&gt;Causal -->
<g id="edge10" class="edge"><title>Linearizable&#45;&gt;Causal</title>
<path fill="none" stroke="black" d="M311,-215.697C311,-207.983 311,-198.712 311,-190.112"/>
<polygon fill="black" stroke="black" points="314.5,-190.104 311,-180.104 307.5,-190.104 314.5,-190.104"/>
</g>
<!-- Linearizable&#45;&gt;Regular -->
<g id="edge2" class="edge"><title>Linearizable&#45;&gt;Regular</title>
<path fill="none" stroke="black" d="M338.674,-217.983C358.407,-207.275 385.057,-192.814 406.073,-181.41"/>
<polygon fill="black" stroke="black" points="407.872,-184.416 414.992,-176.57 404.534,-178.263 407.872,-184.416"/>
</g>
<!-- StrongOSR -->
<g id="node20" class="node"><title>StrongOSR</title>
<ellipse fill="Pink" stroke="red" cx="251" cy="-306" rx="55.1524" ry="18"/>
<text text-anchor="middle" x="251" y="-301.8" font-family="Helvetica,sans-Serif" font-size="14.00">StrongOSR</text>
</g>
<!-- StrongOSR&#45;&gt;OSR -->
<g id="edge5" class="edge"><title>StrongOSR&#45;&gt;OSR</title>
<path fill="none" stroke="black" d="M236.781,-288.411C229.092,-279.441 219.47,-268.215 211.034,-258.373"/>
<polygon fill="black" stroke="black" points="213.46,-255.826 204.295,-250.511 208.146,-260.381 213.46,-255.826"/>
</g>
<!-- StrongOSR&#45;&gt;Linearizable -->
<g id="edge1" class="edge"><title>StrongOSR&#45;&gt;Linearizable</title>
<path fill="none" stroke="black" d="M265.219,-288.411C272.691,-279.693 281.99,-268.845 290.251,-259.208"/>
<polygon fill="black" stroke="black" points="293.032,-261.34 296.883,-251.47 287.718,-256.785 293.032,-261.34"/>
</g>
</g>
</svg>
