<?xml version="1.0" encoding="UTF-8" standalone="no"?>
<!DOCTYPE svg PUBLIC "-//W3C//DTD SVG 1.1//EN"
 "http://www.w3.org/Graphics/SVG/1.1/DTD/svg11.dtd">
<!-- Generated by graphviz version 2.38.0 (20140413.2041)
 -->
<!-- Title: CvRDTMerge Pages: 1 -->
<svg width="438pt" height="188pt"
 viewBox="0.00 0.00 437.53 188.00" xmlns="http://www.w3.org/2000/svg" xmlns:xlink="http://www.w3.org/1999/xlink">
<g id="graph0" class="graph" transform="scale(1 1) rotate(0) translate(4 184)">
<title>CvRDTMerge</title>
<!-- O -->
<g id="node1" class="node"><title>O</title>
<ellipse fill="none" stroke="black" cx="228.785" cy="-162" rx="54.2091" ry="18"/>
<text text-anchor="middle" x="228.785" y="-157.8" font-family="Helvetica,sans-Serif" font-size="14.00">{name: lvh}</text>
</g>
<!-- W1 -->
<g id="node2" class="node"><title>W1</title>
<ellipse fill="none" stroke="black" cx="116.785" cy="-90" rx="116.571" ry="18"/>
<text text-anchor="middle" x="116.785" y="-85.8" font-family="Helvetica,sans-Serif" font-size="14.00">{name: lvh, fav_color: blue}</text>
</g>
<!-- O&#45;&gt;W1 -->
<g id="edge1" class="edge"><title>O&#45;&gt;W1</title>
<path fill="none" stroke="black" d="M204.483,-145.811C189.143,-136.223 169.071,-123.679 152.002,-113.01"/>
<polygon fill="black" stroke="black" points="153.725,-109.96 143.39,-107.628 150.015,-115.896 153.725,-109.96"/>
</g>
<!-- W2 -->
<g id="node3" class="node"><title>W2</title>
<ellipse fill="none" stroke="black" cx="340.785" cy="-90" rx="88.9968" ry="18"/>
<text text-anchor="middle" x="340.785" y="-85.8" font-family="Helvetica,sans-Serif" font-size="14.00">{name: lvh, city: SF}</text>
</g>
<!-- O&#45;&gt;W2 -->
<g id="edge2" class="edge"><title>O&#45;&gt;W2</title>
<path fill="none" stroke="black" d="M253.088,-145.811C268.538,-136.155 288.787,-123.499 305.935,-112.782"/>
<polygon fill="black" stroke="black" points="307.952,-115.648 314.577,-107.38 304.242,-109.712 307.952,-115.648"/>
</g>
<!-- M -->
<g id="node4" class="node"><title>M</title>
<ellipse fill="none" stroke="black" cx="228.785" cy="-18" rx="151.358" ry="18"/>
<text text-anchor="middle" x="228.785" y="-13.8" font-family="Helvetica,sans-Serif" font-size="14.00">{name: lvh, fav_color: blue, city: SF}</text>
</g>
<!-- W1&#45;&gt;M -->
<g id="edge3" class="edge"><title>W1&#45;&gt;M</title>
<path fill="none" stroke="black" d="M143.328,-72.411C158.174,-63.1324 176.881,-51.4405 193.004,-41.3631"/>
<polygon fill="black" stroke="black" points="195.031,-44.2242 201.656,-35.9562 191.321,-38.2882 195.031,-44.2242"/>
</g>
<!-- W2&#45;&gt;M -->
<g id="edge4" class="edge"><title>W2&#45;&gt;M</title>
<path fill="none" stroke="black" d="M314.809,-72.7646C299.869,-63.4274 280.882,-51.5605 264.549,-41.3522"/>
<polygon fill="black" stroke="black" points="266.125,-38.2102 255.79,-35.8781 262.415,-44.1461 266.125,-38.2102"/>
</g>
</g>
</svg>
