<?xml version="1.0" encoding="UTF-8" standalone="no"?>
<!DOCTYPE svg PUBLIC "-//W3C//DTD SVG 1.1//EN"
 "http://www.w3.org/Graphics/SVG/1.1/DTD/svg11.dtd">
<!-- Generated by graphviz version 2.38.0 (20140413.2041)
 -->
<!-- Title: CvRDTMerge Pages: 1 -->
<svg width="150pt" height="188pt"
 viewBox="0.00 0.00 149.53 188.00" xmlns="http://www.w3.org/2000/svg" xmlns:xlink="http://www.w3.org/1999/xlink">
<g id="graph0" class="graph" transform="scale(1 1) rotate(0) translate(4 184)">
<title>CvRDTMerge</title>
<!-- O -->
<g id="node1" class="node"><title>O</title>
<ellipse fill="none" stroke="black" cx="70.7646" cy="-162" rx="27" ry="18"/>
<text text-anchor="middle" x="70.7646" y="-157.8" font-family="Helvetica,sans-Serif" font-size="14.00">{1}</text>
</g>
<!-- W1 -->
<g id="node2" class="node"><title>W1</title>
<ellipse fill="none" stroke="black" cx="30.7646" cy="-90" rx="30.531" ry="18"/>
<text text-anchor="middle" x="30.7646" y="-85.8" font-family="Helvetica,sans-Serif" font-size="14.00">{1, 2}</text>
</g>
<!-- O&#45;&gt;W1 -->
<g id="edge1" class="edge"><title>O&#45;&gt;W1</title>
<path fill="none" stroke="black" d="M61.4873,-144.765C56.7099,-136.404 50.7737,-126.016 45.3966,-116.606"/>
<polygon fill="black" stroke="black" points="48.2697,-114.579 40.2694,-107.633 42.192,-118.052 48.2697,-114.579"/>
</g>
<!-- W2 -->
<g id="node3" class="node"><title>W2</title>
<ellipse fill="none" stroke="black" cx="110.765" cy="-90" rx="30.531" ry="18"/>
<text text-anchor="middle" x="110.765" y="-85.8" font-family="Helvetica,sans-Serif" font-size="14.00">{1, 3}</text>
</g>
<!-- O&#45;&gt;W2 -->
<g id="edge2" class="edge"><title>O&#45;&gt;W2</title>
<path fill="none" stroke="black" d="M80.0419,-144.765C84.8193,-136.404 90.7555,-126.016 96.1326,-116.606"/>
<polygon fill="black" stroke="black" points="99.3372,-118.052 101.26,-107.633 93.2595,-114.579 99.3372,-118.052"/>
</g>
<!-- M -->
<g id="node4" class="node"><title>M</title>
<ellipse fill="none" stroke="black" cx="70.7646" cy="-18" rx="40.6941" ry="18"/>
<text text-anchor="middle" x="70.7646" y="-13.8" font-family="Helvetica,sans-Serif" font-size="14.00">{1, 2, 3}</text>
</g>
<!-- W1&#45;&gt;M -->
<g id="edge3" class="edge"><title>W1&#45;&gt;M</title>
<path fill="none" stroke="black" d="M40.0419,-72.7646C44.8193,-64.4043 50.7555,-54.0159 56.1326,-44.6059"/>
<polygon fill="black" stroke="black" points="59.3372,-46.0523 61.2598,-35.6334 53.2595,-42.5793 59.3372,-46.0523"/>
</g>
<!-- W2&#45;&gt;M -->
<g id="edge4" class="edge"><title>W2&#45;&gt;M</title>
<path fill="none" stroke="black" d="M101.487,-72.7646C96.7099,-64.4043 90.7737,-54.0159 85.3966,-44.6059"/>
<polygon fill="black" stroke="black" points="88.2697,-42.5793 80.2694,-35.6334 82.192,-46.0523 88.2697,-42.5793"/>
</g>
</g>
</svg>
