<?xml version="1.0" encoding="UTF-8" standalone="no"?>
<!-- Created with Inkscape (http://www.inkscape.org/) -->

<svg
   xmlns:dc="http://purl.org/dc/elements/1.1/"
   xmlns:cc="http://creativecommons.org/ns#"
   xmlns:rdf="http://www.w3.org/1999/02/22-rdf-syntax-ns#"
   xmlns:svg="http://www.w3.org/2000/svg"
   xmlns="http://www.w3.org/2000/svg"
   xmlns:sodipodi="http://sodipodi.sourceforge.net/DTD/sodipodi-0.dtd"
   xmlns:inkscape="http://www.inkscape.org/namespaces/inkscape"
   id="svg2"
   version="1.1"
   inkscape:version="0.48.2 r9819"
   width="311.8125"
   height="209.05"
   xml:space="preserve"
   sodipodi:docname="2.pdf"><metadata
     id="metadata8"><rdf:RDF><cc:Work
         rdf:about=""><dc:format>image/svg+xml</dc:format><dc:type
           rdf:resource="http://purl.org/dc/dcmitype/StillImage" /><dc:title></dc:title></cc:Work></rdf:RDF></metadata><defs
     id="defs6"><clipPath
       clipPathUnits="userSpaceOnUse"
       id="clipPath16"><path
         d="m 0,167.24 249.45,0 L 249.45,0 0,0 0,167.24 z"
         id="path18" /></clipPath><clipPath
       clipPathUnits="userSpaceOnUse"
       id="clipPath36"><path
         d="m 0,167.24 249.45,0 L 249.45,0 0,0 0,167.24 z"
         id="path38" /></clipPath></defs><sodipodi:namedview
     pagecolor="#ffffff"
     bordercolor="#666666"
     borderopacity="1"
     objecttolerance="10"
     gridtolerance="10"
     guidetolerance="10"
     inkscape:pageopacity="0"
     inkscape:pageshadow="2"
     inkscape:window-width="640"
     inkscape:window-height="480"
     id="namedview4"
     showgrid="false"
     inkscape:zoom="1.1288835"
     inkscape:cx="155.90625"
     inkscape:cy="104.525"
     inkscape:window-x="246"
     inkscape:window-y="80"
     inkscape:window-maximized="0"
     inkscape:current-layer="g10" /><g
     id="g10"
     inkscape:groupmode="layer"
     inkscape:label="2"
     transform="matrix(1.25,0,0,-1.25,0,209.05)"><g
       id="g12"><g
         id="g14"
         clip-path="url(#clipPath16)"><g
           id="g20"
           transform="translate(144.6777,86.8398)"><path
             d="m 0,0 c 0.812,1.441 1.672,3.064 2.582,4.866 0.909,1.801 1.771,3.657 2.581,5.568 0.811,1.909 1.514,3.815 2.108,5.716 0.595,1.901 0.973,3.672 1.135,5.311 0,0.523 -0.013,0.969 -0.04,1.338 -0.027,0.369 -0.113,0.555 -0.257,0.555 -0.523,0 -1.086,-0.338 -1.689,-1.014 -0.605,-0.676 -1.207,-1.59 -1.811,-2.743 -0.604,-1.154 -1.18,-2.496 -1.73,-4.028 -0.262,-0.728 0.943,0.019 0.943,0.019 0,0 -2.189,-4.005 -2.416,-4.911 C 0.974,8.947 0.631,7.167 0.379,5.339 0.126,3.51 0,1.73 0,0 m -0.026,-21.623 c -0.974,0 -1.879,0.428 -2.717,1.285 -0.838,0.856 -1.568,2.004 -2.19,3.445 -0.621,1.442 -1.107,3.114 -1.459,5.014 -0.351,1.9 -0.527,3.897 -0.527,5.986 0,1.604 0.117,3.348 0.352,5.231 0.233,1.883 0.576,3.824 1.027,5.825 0.45,2 0.986,4.009 1.607,6.027 0.622,2.018 1.326,3.956 2.109,5.811 0.784,1.856 1.636,3.591 2.554,5.204 0.919,1.612 1.883,3.018 2.892,4.216 1.009,1.198 2.064,2.14 3.163,2.825 1.099,0.684 2.216,1.027 3.352,1.027 0.774,0 1.414,-0.176 1.919,-0.527 0.504,-0.351 0.9,-0.816 1.188,-1.392 0.288,-0.577 0.491,-1.23 0.609,-1.96 0.117,-0.729 0.175,-1.473 0.175,-2.229 0,-0.553 -0.02,-1.108 -0.061,-1.667 -0.012,-0.161 -0.026,-0.321 -0.041,-0.482 -0.072,-0.764 -0.132,-1.257 -0.28,-2.033 -0.046,-0.239 -0.011,-2.77 -0.011,-2.77 0,0 -0.481,0.581 -0.536,0.351 C 12.731,16.034 12.394,15.253 11.88,13.69 11.093,11.294 9.596,8.353 9.596,8.353 l -0.54,0.672 c 0,0 -0.438,-2.653 -0.66,-3.091 C 7.905,4.966 7.404,4.002 6.893,3.041 5.956,1.285 5.015,-0.445 4.068,-2.148 3.122,-3.852 2.234,-5.514 1.406,-7.135 1.315,-7.314 1.221,-7.551 1.122,-7.838 1.081,-7.957 1.041,-8.081 1.001,-8.208 0.945,-8.388 0.891,-8.574 0.838,-8.77 0.785,-8.967 0.732,-9.171 0.68,-9.383 0.643,-9.531 0.605,-9.683 0.568,-9.838 0.478,-10.217 0.406,-10.586 0.352,-10.945 l 0,-0.379 c 0,-0.469 0.049,-0.924 0.149,-1.365 0.099,-0.442 0.22,-0.838 0.364,-1.19 0.145,-0.351 0.298,-0.631 0.46,-0.838 0.162,-0.207 0.315,-0.31 0.459,-0.31 0.343,0 0.735,0.072 1.176,0.216 0.441,0.143 0.91,0.338 1.405,0.581 0.496,0.244 1.005,0.523 1.528,0.837 0.522,0.315 1.027,0.635 1.513,0.959 1.136,0.758 2.324,1.631 3.569,2.623 l 2.215,-5.675 c -1.603,-1.155 -3.189,-2.182 -4.756,-3.082 -0.686,-0.379 -1.393,-0.752 -2.122,-1.121 -0.73,-0.37 -1.464,-0.7 -2.204,-0.987 -0.738,-0.289 -1.459,-0.519 -2.162,-0.689 -0.702,-0.172 -1.36,-0.258 -1.972,-0.258"
             style="fill:#373233;fill-opacity:1;fill-rule:nonzero;stroke:none"
             id="path22" /></g><g
           id="g24"
           transform="translate(154.166,73.9746)"><path
             d="m 0,0 c -0.055,1.352 -0.108,2.527 -0.162,3.527 -0.055,1 -0.105,1.907 -0.15,2.717 -0.044,0.811 -0.076,1.559 -0.093,2.242 -0.019,0.686 -0.028,1.389 -0.028,2.11 0,1.855 0.085,3.3 0.257,4.338 0.171,1.035 0.545,1.598 1.121,1.689 l 3.244,0.513 c 0.09,0.018 0.176,0.031 0.257,0.041 0.081,0.009 0.166,0.013 0.257,0.013 0.385,0 0.715,-0.071 0.99,-0.213 0.162,-0.084 1.422,-0.743 1.422,-0.743 0,0 -0.699,0.042 -0.611,-0.165 0.088,-0.208 0.136,-0.428 0.144,-0.663 L 6.363,10.768 5.99,10.797 6.268,9.204 5.595,-1.703 l 0.378,0.027 7.109,16.947 c 0.054,0.252 0.171,0.497 0.351,0.731 0.18,0.232 0.415,0.436 0.703,0.607 0.288,0.171 0.608,0.311 0.96,0.419 0.35,0.108 0.724,0.162 1.121,0.162 1.045,0 1.883,-0.211 2.513,-0.635 0.631,-0.424 0.947,-0.969 0.947,-1.635 0,-0.504 -0.068,-0.982 -0.203,-1.432 -0.135,-0.451 -0.325,-0.943 -0.568,-1.474 -0.146,-0.32 -0.631,-2.143 -0.631,-2.143 0,0 -0.101,0.631 -0.234,0.373 C 17.708,9.596 17.343,8.83 16.947,7.947 16.82,7.623 16.713,7.289 16.622,6.947 16.532,6.641 16.456,6.293 16.393,5.906 16.329,5.518 16.298,5.117 16.298,4.703 c 0,-0.432 0.055,-0.855 0.162,-1.269 0.108,-0.416 0.298,-0.789 0.568,-1.123 0.27,-0.334 0.639,-0.6 1.108,-0.797 0.468,-0.2 1.072,-0.297 1.811,-0.297 0.54,0 1.166,0.138 1.878,0.418 0.712,0.279 1.383,0.599 2.014,0.961 0.739,0.414 1.496,0.881 2.27,1.404 l 0,-6.352 c -1.189,-0.755 -2.419,-1.361 -3.689,-1.81 -1.271,-0.451 -2.483,-0.676 -3.635,-0.676 -0.973,0 -1.843,0.149 -2.608,0.445 -0.767,0.297 -1.415,0.7 -1.947,1.204 -0.532,0.503 -0.946,1.072 -1.243,1.703 -0.298,0.631 -0.455,1.287 -0.473,1.972 -0.523,-1.08 -1.118,-2.189 -1.784,-3.324 -0.15,-0.256 -0.334,-1.365 -0.334,-1.365 0,0 -0.35,0.25 -0.466,0.072 C 9.516,-4.767 9.093,-5.363 8.662,-5.92 7.95,-6.838 7.239,-7.592 6.527,-8.176 5.815,-8.762 5.145,-9.055 4.514,-9.055 c -1.045,0 -1.857,0.266 -2.433,0.797 -0.577,0.531 -1.005,1.203 -1.284,2.014 -0.279,0.81 -0.459,1.693 -0.54,2.648 -0.081,0.955 -0.15,1.866 -0.203,2.731 L 0,0 z"
             style="fill:#373233;fill-opacity:1;fill-rule:nonzero;stroke:none"
             id="path26" /></g><g
           id="g28"
           transform="translate(190.4111,98.7329)"><path
             d="m 0,0 c 1.062,2.757 1.833,5.082 2.311,6.974 0.477,1.892 0.716,3.288 0.716,4.189 0,1.369 -0.18,2.054 -0.541,2.054 -0.468,0 -1.162,-0.766 -2.081,-2.297 -0.176,-0.294 -0.691,0.212 -0.691,0.212 0,0 -0.197,-1.808 -0.375,-2.158 C -1.321,7.678 -2.047,6.101 -2.838,4.244 -3.145,3.252 -3.429,2.226 -3.689,1.163 -3.951,0.099 -4.186,-0.959 -4.393,-2.014 -4.6,-3.067 -4.789,-4.104 -4.96,-5.122 -5.132,-6.14 -5.28,-7.108 -5.406,-8.027 c -0.307,-2.145 -0.54,-4.243 -0.702,-6.298 0.486,1.135 1.017,2.369 1.594,3.703 0.576,1.332 1.144,2.653 1.702,3.959 0.559,1.307 1.086,2.541 1.582,3.704 C -0.734,-1.797 -0.324,-0.811 0,0 m -2.406,-16.704 c 0.739,0.973 1.568,2.018 2.487,3.135 0.919,1.117 1.874,2.158 2.865,3.123 0.991,0.963 1.977,1.766 2.959,2.405 0.983,0.64 1.907,0.959 2.771,0.959 0.217,0 0.46,-0.04 0.73,-0.121 0.27,-0.081 0.527,-0.23 0.77,-0.446 0.243,-0.216 0.446,-0.518 0.608,-0.906 0.162,-0.387 0.243,-0.887 0.243,-1.5 0,-1.225 -0.171,-2.418 -0.513,-3.58 -0.342,-1.162 -0.716,-2.324 -1.121,-3.489 -0.406,-1.162 -0.776,-2.345 -1.109,-3.552 -0.334,-1.209 -0.5,-2.469 -0.5,-3.785 0,-0.721 0.109,-1.297 0.324,-1.729 0.216,-0.434 0.496,-0.65 0.838,-0.65 0.433,0 0.892,0.09 1.379,0.271 0.487,0.18 0.973,0.414 1.459,0.703 0.487,0.287 0.964,0.617 1.433,0.987 0.469,0.369 0.91,0.752 1.324,1.148 0.991,0.918 1.964,1.963 2.893,3.148 l 0.217,-1.097 2.071,1.701 0.179,-0.711 2.064,2.134 0.186,-0.687 3.42,3.13 1.393,0.683 -1.813,-2.25 1.649,0.05 -4.399,-4.738 0.867,-0.116 -5.348,-5.302 c -0.324,-0.252 -0.734,-0.568 -1.23,-0.945 -0.496,-0.379 -1.045,-0.779 -1.649,-1.203 -0.603,-0.424 -1.257,-0.852 -1.959,-1.283 -0.703,-0.434 -1.41,-0.817 -2.122,-1.151 -0.712,-0.332 -1.424,-0.607 -2.136,-0.824 -0.712,-0.215 -1.391,-0.324 -2.04,-0.324 -0.991,0 -1.851,0.266 -2.581,0.797 -0.73,0.533 -1.329,1.207 -1.798,2.027 -0.468,0.82 -0.82,1.717 -1.053,2.69 C 1.117,-27.028 1,-26.11 1,-25.245 c 0,0.577 0.076,1.221 0.229,1.932 0.154,0.713 0.342,1.428 0.568,2.15 0.225,0.719 0.477,1.422 0.757,2.108 0.279,0.685 0.541,1.297 0.784,1.838 0.243,0.541 0.455,0.982 0.635,1.324 0.18,0.342 1.125,1.658 1.178,1.713 l -1.394,-1.037 c -0.307,-0.2 -0.824,-0.703 -1.555,-1.514 -0.729,-0.811 -1.554,-1.834 -2.473,-3.068 -0.918,-1.235 -1.87,-2.621 -2.851,-4.162 -0.982,-1.541 -1.869,-3.131 -2.662,-4.77 -0.397,-0.811 -0.721,-1.519 -0.974,-2.123 -0.252,-0.604 -0.5,-1.098 -0.743,-1.486 -0.243,-0.387 -0.509,-0.68 -0.797,-0.879 -0.289,-0.198 -0.658,-0.297 -1.108,-0.297 -0.595,0 -1.064,0.172 -1.406,0.514 -0.342,0.341 -0.604,0.796 -0.784,1.365 -0.18,0.568 -0.297,1.211 -0.351,1.933 -0.054,0.719 -0.081,1.459 -0.081,2.215 0,1.207 0.013,2.789 0.041,4.744 0.026,1.955 0.112,4.121 0.257,6.5 0.143,2.379 0.351,4.883 0.621,7.514 0.27,2.631 0.653,5.231 1.149,7.799 0.495,2.567 1.116,5.018 1.864,7.351 0.347,1.081 0.728,2.101 1.143,3.061 0.263,0.609 0.542,4.777 0.542,4.777 0,0 0.784,-2.107 1.046,-1.675 1.071,1.775 2.328,3.185 3.77,4.23 1.442,1.045 3.099,1.568 4.973,1.568 0.408,0 2.47,0.463 2.47,0.463 0,0 -0.439,-0.728 -0.077,-0.896 0.31,-0.144 1.88,-0.502 1.88,-0.502 0,0 -0.579,-0.453 -0.394,-0.714 0.369,-0.523 0.626,-1.148 0.77,-1.878 0.144,-0.73 0.216,-1.546 0.216,-2.447 C 8.243,11.073 8.055,9.595 7.676,7.974 7.298,6.352 6.798,4.667 6.176,2.919 5.555,1.171 4.847,-0.599 4.054,-2.392 3.261,-4.185 2.45,-5.924 1.621,-7.608 c -0.828,-1.685 -1.644,-3.275 -2.445,-4.771 -0.803,-1.496 -2.975,-5.291 -3.587,-6.426 l 2.005,2.101 z"
             style="fill:#373233;fill-opacity:1;fill-rule:nonzero;stroke:none"
             id="path30" /></g></g></g><g
       id="g32"><g
         id="g34"
         clip-path="url(#clipPath36)"><g
           id="g40"
           transform="translate(45.3994,108.9219)"><path
             d="m 0,0 c -0.483,-5.822 -1.45,-17.469 -1.45,-17.469 l -0.006,-9.859 c 0,-0.443 0.209,-1.091 0.468,-1.447 l 19.286,-26.599 c 0.518,-0.716 1.656,-1.3 2.538,-1.306 l 9.685,-0.055 -0.039,61.889 C 30.478,11.963 0.708,8.529 0,0"
             style="fill:#c2a898;fill-opacity:1;fill-rule:nonzero;stroke:none"
             id="path42" /></g><g
           id="g44"
           transform="translate(105.335,107.8848)"><path
             d="m 0,0 1.364,-16.432 0.006,-9.859 c 0,-0.442 -0.209,-1.091 -0.468,-1.447 l -19.285,-26.599 c -0.519,-0.716 -1.657,-1.301 -2.539,-1.306 l -8.709,-0.055 c 0,0 0.026,41.089 0.039,61.633 C -29.588,12.829 -0.736,8.875 0,0"
             style="fill:#b49c8d;fill-opacity:1;fill-rule:nonzero;stroke:none"
             id="path46" /></g><g
           id="g48"
           transform="translate(72.6953,30.1016)"><path
             d="m 0,0 c 0,0 -0.552,-1.382 -0.774,-0.719 -0.46,1.377 -1.919,9.64 -1.919,9.64 0,0 -0.521,-2.342 -1.051,-0.759 l -4.631,15.851 c -0.2,0.594 -0.073,1.409 0.302,1.763 0,0 2.056,3.111 10.773,3.111 8.717,0 11.465,-3.184 11.465,-3.184 0.383,-0.339 0.533,-1.099 0.334,-1.691 0,0 -3.192,-11.546 -4.686,-16.009 C 9.485,7.019 8.574,8.09 8.574,8.09 8.574,8.09 8.094,2.859 7.668,1.585 7.297,0.477 6.012,2.324 6.012,2.324 L 3.297,-11.032 c -0.13,-0.639 -0.363,-0.649 -0.519,-0.026 L 0,0 z"
             style="fill:#373233;fill-opacity:1;fill-rule:nonzero;stroke:none"
             id="path50" /></g><g
           id="g52"
           transform="translate(97.0771,119.5371)"><path
             d="M 0,0 2.26,3.078 -0.272,3.245 -0.361,4.866 -2.968,2.579 -1.261,5.648 -3.218,4.675 -3.45,6.678 -7.294,-1.292 c 0,0 4.303,-5.327 6.439,-1.231 0.604,1.16 4.307,2.531 4.307,2.531 L 0,0 z"
             style="fill:#373335;fill-opacity:1;fill-rule:nonzero;stroke:none"
             id="path54" /></g><g
           id="g56"
           transform="translate(51.29,117.7734)"><path
             d="m 0,0 c -0.802,6.545 -12.109,14.094 -12.109,14.094 0,0 11.868,2.404 22.107,-3 0.379,4.039 -9.255,13.467 -9.255,13.467 0,0 16.389,-0.061 22.772,-11.007 -1.045,5.399 -7.148,11.794 -7.148,11.794 0,0 18.539,0.548 26.185,-21.546 8.459,-5.046 13.975,-12.797 13.975,-19.457 0,-17.833 -0.765,-20.015 -2.102,-18.345 -0.323,0.404 0.965,17.091 -1.531,20.818 -2.336,2.863 -5.35,7.002 -9.521,8.059 -5.474,1.385 -12.113,-1.508 -18.837,-1.853 l 0,-0.033 c -0.209,0 -0.418,0.003 -0.627,0.009 -0.209,-0.006 -0.418,-0.009 -0.627,-0.009 l 0,0.033 C 16.558,-6.631 9.918,-3.738 4.445,-5.123 0.273,-6.18 -2.739,-10.319 -5.075,-13.182 -7.572,-16.909 -6.284,-33.596 -6.607,-34 c -1.336,-1.67 -2.102,0.512 -2.102,18.345 0,5.151 3.3,10.955 8.709,15.655"
             style="fill:#383234;fill-opacity:1;fill-rule:nonzero;stroke:none"
             id="path58" /></g><g
           id="g60"
           transform="translate(58.314,120.7769)"><path
             d="m 0,0 0.056,-6.346 -9.717,1.798 1.999,1.074 -3.742,0.851 L 0,0 z"
             style="fill:#373335;fill-opacity:1;fill-rule:nonzero;stroke:none"
             id="path62" /></g><g
           id="g64"
           transform="translate(94.6372,65.6182)"><path
             d="m 0,0 c -0.917,0.347 -4.689,0.982 -4.689,0.982 0,0 0.575,-0.296 0.133,-0.296 l -3.043,0.337 c 0,0 0.393,-0.337 0.064,-0.337 -0.301,0 -2.306,0.337 -2.306,0.337 l 0.314,-0.337 c -1.698,0 -3.205,0.362 -4.519,1.085 -1.315,0.725 -2.339,1.821 -3.074,3.287 -0.767,-1.466 -2.895,7.372 -0.064,7.372 2.831,0 2.831,-1.014 2.831,-1.014 0,-1.293 0.421,-2.254 1.262,-2.885 0.841,-0.629 2.029,-0.945 3.564,-0.945 l 4.971,0 C -1.032,7.115 -0.293,6.81 2.613,5.935 6.041,5.14 30.425,1.435 37.238,6.247 c 0,0 2.75,1.625 5.75,5.125 1.981,2.312 7.125,9.875 7.125,9.875 l 2.062,-5.812 c 0,0 -0.843,-5.163 -5.69,-10.159 C 46.101,4.88 45.672,4.505 45.255,4.095 42.738,1.622 39.057,0.377 39.057,0.377 l 0.47,-0.192 c 0,0 -3.219,-1.206 -6.664,-2.063 C 31.66,-2.177 26.22,-2.221 26.22,-2.221 l 0.223,-0.447 c 0,0 -5.205,-0.094 -10.174,0.128 -1.499,0.066 -4.981,0.874 -4.981,0.874 l -0.059,-0.202 -3.94,0.524 0.074,-0.368"
             style="fill:#373233;fill-opacity:1;fill-rule:nonzero;stroke:none"
             id="path66" /></g><g
           id="g68"
           transform="translate(73.9531,78.0479)"><path
             d="m 0,0 c -2.831,0 -2.831,-1.014 -2.831,-1.014 0,-1.293 -0.42,-2.254 -1.261,-2.884 -0.841,-0.629 -2.029,-0.946 -3.564,-0.946 l -4.971,0 c -2.792,0 -5.165,-0.647 -7.116,-1.95 -1.951,-1.299 -3.375,-3.485 -4.274,-6.559 l 0.613,-1.806 0.467,1.008 0.339,-1.963 2.491,2.086 0.401,-0.813 c 0.365,0.887 1.999,2.581 2.799,3.055 0.24,0.142 -0.554,-0.751 -0.276,-0.644 0.917,0.347 4.689,0.983 4.689,0.983 0,0 -0.575,-0.297 -0.133,-0.297 l 3.044,0.338 c 0,0 -0.394,-0.338 -0.064,-0.338 0.3,0 2.304,0.338 2.304,0.338 l -0.313,-0.338 c 1.698,0 3.205,0.362 4.519,1.086 1.315,0.724 2.339,1.82 3.074,3.286 C 0.704,-8.838 2.832,0 0,0"
             style="fill:#373233;fill-opacity:1;fill-rule:nonzero;stroke:none"
             id="path70" /></g></g></g></g></svg>