<?xml version='1.0' encoding='UTF-8'?>
<!DOCTYPE svg PUBLIC "-//W3C//DTD SVG 1.0//EN" "http://www.w3.org/TR/2001/REC-SVG-20010904/DTD/svg10.dtd">
<svg viewBox="0 0 448 515" xmlns="http://www.w3.org/2000/svg" xmlns:inkspace="http://www.inkscape.org/namespaces/inkscape" xmlns:xlink="http://www.w3.org/1999/xlink">
  <defs id="defs_block">
    <filter height="1.504" id="filter_blur" inkspace:collect="always" width="1.1575" x="-0.07875" y="-0.252">
      <feGaussianBlur id="feGaussianBlur3780" inkspace:collect="always" stdDeviation="4.2" />
    </filter>
  </defs>
  <title>blockdiag</title>
  <desc>seqdiag {
        activation = none;
        default_fontsize = 14;
      
        A [label="Process A"];
        R [label="Register"];
        
        A -&gt;&gt; R [diagonal, label="Write x"];
        R -&gt;&gt; A [diagonal];

        A -&gt;&gt; R [diagonal, label="Read"];
        R -&gt;&gt; A [diagonal, label="Read x"];
}
</desc>
  <rect fill="rgb(0,0,0)" height="40" stroke="rgb(0,0,0)" style="filter:url(#filter_blur);opacity:0.7;fill-opacity:1" width="128" x="67" y="46" />
  <rect fill="rgb(0,0,0)" height="40" stroke="rgb(0,0,0)" style="filter:url(#filter_blur);opacity:0.7;fill-opacity:1" width="128" x="259" y="46" />
  <path d="M 128 80 L 128 503" fill="none" stroke="rgb(0,0,0)" stroke-dasharray="8 4" />
  <path d="M 320 80 L 320 503" fill="none" stroke="rgb(0,0,0)" stroke-dasharray="8 4" />
  <rect fill="rgb(255,255,255)" height="40" stroke="rgb(0,0,0)" width="128" x="64" y="40" />
  <text fill="rgb(0,0,0)" font-family="sans-serif" font-size="14" font-style="normal" font-weight="normal" text-anchor="middle" textLength="72" x="128" y="67">Process A</text>
  <rect fill="rgb(255,255,255)" height="40" stroke="rgb(0,0,0)" width="128" x="256" y="40" />
  <text fill="rgb(0,0,0)" font-family="sans-serif" font-size="14" font-style="normal" font-weight="normal" text-anchor="middle" textLength="57" x="320" y="68">Register</text>
  <path d="M 136 137 L 312 167" fill="none" stroke="rgb(0,0,0)" />
  <path d="M 304 163 L 312 167" fill="none" stroke="rgb(0,0,0)" />
  <path d="M 312 167 L 304 171" fill="none" stroke="rgb(0,0,0)" />
  <path d="M 136 247 L 312 217" fill="none" stroke="rgb(0,0,0)" />
  <path d="M 144 243 L 136 247" fill="none" stroke="rgb(0,0,0)" />
  <path d="M 136 247 L 144 251" fill="none" stroke="rgb(0,0,0)" />
  <path d="M 136 314 L 312 344" fill="none" stroke="rgb(0,0,0)" />
  <path d="M 304 340 L 312 344" fill="none" stroke="rgb(0,0,0)" />
  <path d="M 312 344 L 304 348" fill="none" stroke="rgb(0,0,0)" />
  <path d="M 136 441 L 312 411" fill="none" stroke="rgb(0,0,0)" />
  <path d="M 144 437 L 136 441" fill="none" stroke="rgb(0,0,0)" />
  <path d="M 136 441 L 144 445" fill="none" stroke="rgb(0,0,0)" />
  <text fill="rgb(0,0,0)" font-family="sans-serif" font-size="14" font-style="normal" font-weight="normal" text-anchor="middle" textLength="49" x="164" y="135">Write x</text>
  <text fill="rgb(0,0,0)" font-family="sans-serif" font-size="14" font-style="normal" font-weight="normal" text-anchor="middle" textLength="35" x="157" y="312">Read</text>
  <text fill="rgb(0,0,0)" font-family="sans-serif" font-size="14" font-style="normal" font-weight="normal" text-anchor="middle" textLength="48" x="288" y="409">Read x</text>
</svg>
