<?xml version='1.0' encoding='UTF-8'?>
<!DOCTYPE svg PUBLIC "-//W3C//DTD SVG 1.0//EN" "http://www.w3.org/TR/2001/REC-SVG-20010904/DTD/svg10.dtd">
<svg viewBox="0 0 640 485" xmlns="http://www.w3.org/2000/svg" xmlns:inkspace="http://www.inkscape.org/namespaces/inkscape" xmlns:xlink="http://www.w3.org/1999/xlink">
  <defs id="defs_block">
    <filter height="1.504" id="filter_blur" inkspace:collect="always" width="1.1575" x="-0.07875" y="-0.252">
      <feGaussianBlur id="feGaussianBlur3780" inkspace:collect="always" stdDeviation="4.2" />
    </filter>
  </defs>
  <title>blockdiag</title>
  <desc>seqdiag {
        activation = none;
        default_fontsize = 14;

        A [label="Process"];
        RA [label="Node A"];
        RB [label="Node B"];

        A -&gt;&gt; RA [label="Write x"];
        A &lt;&lt;- RA [label="Written x"];

        A -&gt;&gt; RB [label="Read"];
        A &lt;&lt;- RB [label="Read y"];

        RA -&gt;&gt; RB [label="Replicate write x"];
}
</desc>
  <rect fill="rgb(0,0,0)" height="40" stroke="rgb(0,0,0)" style="filter:url(#filter_blur);opacity:0.7;fill-opacity:1" width="128" x="67" y="46" />
  <rect fill="rgb(0,0,0)" height="40" stroke="rgb(0,0,0)" style="filter:url(#filter_blur);opacity:0.7;fill-opacity:1" width="128" x="259" y="46" />
  <rect fill="rgb(0,0,0)" height="40" stroke="rgb(0,0,0)" style="filter:url(#filter_blur);opacity:0.7;fill-opacity:1" width="128" x="451" y="46" />
  <path d="M 128 80 L 128 473" fill="none" stroke="rgb(0,0,0)" stroke-dasharray="8 4" />
  <path d="M 320 80 L 320 473" fill="none" stroke="rgb(0,0,0)" stroke-dasharray="8 4" />
  <path d="M 512 80 L 512 473" fill="none" stroke="rgb(0,0,0)" stroke-dasharray="8 4" />
  <rect fill="rgb(255,255,255)" height="40" stroke="rgb(0,0,0)" width="128" x="64" y="40" />
  <text fill="rgb(0,0,0)" font-family="sans-serif" font-size="14" font-style="normal" font-weight="normal" text-anchor="middle" textLength="56" x="128" y="67">Process</text>
  <rect fill="rgb(255,255,255)" height="40" stroke="rgb(0,0,0)" width="128" x="256" y="40" />
  <text fill="rgb(0,0,0)" font-family="sans-serif" font-size="14" font-style="normal" font-weight="normal" text-anchor="middle" textLength="53" x="320" y="67">Node A</text>
  <rect fill="rgb(255,255,255)" height="40" stroke="rgb(0,0,0)" width="128" x="448" y="40" />
  <text fill="rgb(0,0,0)" font-family="sans-serif" font-size="14" font-style="normal" font-weight="normal" text-anchor="middle" textLength="52" x="512" y="67">Node B</text>
  <path d="M 136 137 L 312 137" fill="none" stroke="rgb(0,0,0)" />
  <path d="M 304 133 L 312 137" fill="none" stroke="rgb(0,0,0)" />
  <path d="M 312 137 L 304 141" fill="none" stroke="rgb(0,0,0)" />
  <path d="M 136 204 L 312 204" fill="none" stroke="rgb(0,0,0)" />
  <path d="M 144 200 L 136 204" fill="none" stroke="rgb(0,0,0)" />
  <path d="M 136 204 L 144 208" fill="none" stroke="rgb(0,0,0)" />
  <path d="M 136 271 L 504 271" fill="none" stroke="rgb(0,0,0)" />
  <path d="M 496 267 L 504 271" fill="none" stroke="rgb(0,0,0)" />
  <path d="M 504 271 L 496 275" fill="none" stroke="rgb(0,0,0)" />
  <path d="M 136 341 L 504 341" fill="none" stroke="rgb(0,0,0)" />
  <path d="M 144 337 L 136 341" fill="none" stroke="rgb(0,0,0)" />
  <path d="M 136 341 L 144 345" fill="none" stroke="rgb(0,0,0)" />
  <path d="M 328 411 L 504 411" fill="none" stroke="rgb(0,0,0)" />
  <path d="M 496 407 L 504 411" fill="none" stroke="rgb(0,0,0)" />
  <path d="M 504 411 L 496 415" fill="none" stroke="rgb(0,0,0)" />
  <text fill="rgb(0,0,0)" font-family="sans-serif" font-size="14" font-style="normal" font-weight="normal" text-anchor="middle" textLength="49" x="164" y="135">Write x</text>
  <text fill="rgb(0,0,0)" font-family="sans-serif" font-size="14" font-style="normal" font-weight="normal" text-anchor="middle" textLength="63" x="280" y="202">Written x</text>
  <text fill="rgb(0,0,0)" font-family="sans-serif" font-size="14" font-style="normal" font-weight="normal" text-anchor="middle" textLength="35" x="157" y="269">Read</text>
  <text fill="rgb(0,0,0)" font-family="sans-serif" font-size="14" font-style="normal" font-weight="normal" text-anchor="middle" textLength="48" x="480" y="339">Read y</text>
  <text fill="rgb(0,0,0)" font-family="sans-serif" font-size="14" font-style="normal" font-weight="normal" text-anchor="middle" textLength="113" x="388" y="409">Replicate write x</text>
</svg>
