<?xml version="1.0" encoding="UTF-8" standalone="no"?>
<!DOCTYPE svg PUBLIC "-//W3C//DTD SVG 1.1//EN"
 "http://www.w3.org/Graphics/SVG/1.1/DTD/svg11.dtd">
<!-- Generated by graphviz version 2.38.0 (20140413.2041)
 -->
<!-- Title: %3 Pages: 1 -->
<svg width="182pt" height="149pt"
 viewBox="0.00 0.00 182.00 149.00" xmlns="http://www.w3.org/2000/svg" xmlns:xlink="http://www.w3.org/1999/xlink">
<g id="graph0" class="graph" transform="scale(1 1) rotate(0) translate(4 145)">
<title>%3</title>
<!-- A -->
<g id="node1" class="node"><title>A</title>
<ellipse fill="none" stroke="black" cx="40.7366" cy="-39.1399" rx="27" ry="18"/>
<text text-anchor="middle" x="40.7366" y="-34.9399" font-family="Helvetica,sans-Serif" font-size="14.00">{1}</text>
</g>
<!-- B -->
<g id="node2" class="node"><title>B</title>
<ellipse fill="none" stroke="black" cx="147" cy="-75.9601" rx="27" ry="18"/>
<text text-anchor="middle" x="147" y="-71.7601" font-family="Helvetica,sans-Serif" font-size="14.00">{2}</text>
</g>
<!-- A&#45;&#45;B -->
<g id="edge1" class="edge"><title>A&#45;&#45;B</title>
<path fill="none" stroke="black" d="M64.8493,-47.495C82.2398,-53.5209 105.614,-61.6199 122.982,-67.6381"/>
</g>
<!-- C -->
<g id="node3" class="node"><title>C</title>
<ellipse fill="none" stroke="black" cx="107.071" cy="-18.4619" rx="27" ry="18"/>
<text text-anchor="middle" x="107.071" y="-14.2619" font-family="Helvetica,sans-Serif" font-size="14.00">{3}</text>
</g>
<!-- A&#45;&#45;C -->
<g id="edge4" class="edge"><title>A&#45;&#45;C</title>
<path fill="none" stroke="black" d="M65.4372,-31.4402C71.0362,-29.6948 76.9802,-27.8419 82.5709,-26.0992"/>
</g>
<!-- D -->
<g id="node4" class="node"><title>D</title>
<ellipse fill="none" stroke="black" cx="30.9077" cy="-102.342" rx="30.531" ry="18"/>
<text text-anchor="middle" x="30.9077" y="-98.1418" font-family="Helvetica,sans-Serif" font-size="14.00">{4, 5}</text>
</g>
<!-- A&#45;&#45;D -->
<g id="edge5" class="edge"><title>A&#45;&#45;D</title>
<path fill="none" stroke="black" d="M37.9463,-57.082C36.6296,-65.5487 35.061,-75.6353 33.7391,-84.1354"/>
</g>
<!-- E -->
<g id="node5" class="node"><title>E</title>
<ellipse fill="Pink" stroke="red" cx="98.3375" cy="-122.91" rx="27" ry="18"/>
<text text-anchor="middle" x="98.3375" y="-118.71" font-family="Helvetica,sans-Serif" font-size="14.00">???</text>
</g>
<!-- A&#45;&#45;E -->
<g id="edge7" class="edge"><title>A&#45;&#45;E</title>
<path fill="none" stroke="red" stroke-dasharray="5,2" d="M52.1166,-55.6902C62.2149,-70.3763 76.8899,-91.7186 86.981,-106.394"/>
</g>
<!-- B&#45;&#45;C -->
<g id="edge2" class="edge"><title>B&#45;&#45;C</title>
<path fill="none" stroke="black" d="M135.451,-59.3292C130.107,-51.6345 123.779,-42.5222 118.456,-34.8568"/>
</g>
<!-- B&#45;&#45;D -->
<g id="edge6" class="edge"><title>B&#45;&#45;D</title>
<path fill="none" stroke="black" d="M121.235,-81.8151C103.065,-85.9441 78.7082,-91.4792 59.8657,-95.7611"/>
</g>
<!-- B&#45;&#45;E -->
<g id="edge8" class="edge"><title>B&#45;&#45;E</title>
<path fill="none" stroke="red" stroke-dasharray="5,2" d="M131.603,-90.8154C125.922,-96.2959 119.488,-102.504 113.801,-107.99"/>
</g>
<!-- C&#45;&#45;D -->
<g id="edge3" class="edge"><title>C&#45;&#45;D</title>
<path fill="none" stroke="black" d="M92.7455,-34.239C79.2148,-49.1405 59.0223,-71.3788 45.4282,-86.3501"/>
</g>
<!-- C&#45;&#45;E -->
<g id="edge9" class="edge"><title>C&#45;&#45;E</title>
<path fill="none" stroke="red" stroke-dasharray="5,2" d="M105.55,-36.6554C103.947,-55.8261 101.438,-85.8334 99.8413,-104.925"/>
</g>
<!-- D&#45;&#45;E -->
<g id="edge10" class="edge"><title>D&#45;&#45;E</title>
<path fill="none" stroke="red" stroke-dasharray="5,2" d="M58.334,-110.708C63.4386,-112.265 68.7426,-113.883 73.7553,-115.412"/>
</g>
</g>
</svg>
