<?xml version="1.0" encoding="UTF-8" standalone="no"?>
<!DOCTYPE svg PUBLIC "-//W3C//DTD SVG 1.1//EN"
 "http://www.w3.org/Graphics/SVG/1.1/DTD/svg11.dtd">
<!-- Generated by graphviz version 2.38.0 (20140413.2041)
 -->
<!-- Title: SingleClock Pages: 1 -->
<svg width="350pt" height="148pt"
 viewBox="0.00 0.00 350.00 147.90" xmlns="http://www.w3.org/2000/svg" xmlns:xlink="http://www.w3.org/1999/xlink">
<g id="graph0" class="graph" transform="scale(1 1) rotate(0) translate(4 143.902)">
<title>SingleClock</title>
<!-- Clock -->
<g id="node1" class="node"><title>Clock</title>
<ellipse fill="LightBlue" stroke="blue" cx="171" cy="-18" rx="32.4411" ry="18"/>
<text text-anchor="middle" x="171" y="-13.8" font-family="Helvetica,sans-Serif" font-size="14.00">Clock</text>
</g>
<!-- Node1 -->
<g id="node2" class="node"><title>Node1</title>
<ellipse fill="none" stroke="black" cx="27" cy="-90" rx="27" ry="18"/>
<text text-anchor="middle" x="27" y="-85.8" font-family="Helvetica,sans-Serif" font-size="14.00">A</text>
</g>
<!-- Node1&#45;&#45;Clock -->
<g id="edge1" class="edge"><title>Node1&#45;&#45;Clock</title>
<path fill="none" stroke="black" d="M48.2477,-78.6713C74.6909,-65.8169 119.717,-43.9292 147.267,-30.537"/>
</g>
<!-- Node2 -->
<g id="node3" class="node"><title>Node2</title>
<ellipse fill="none" stroke="black" cx="99" cy="-90" rx="27" ry="18"/>
<text text-anchor="middle" x="99" y="-85.8" font-family="Helvetica,sans-Serif" font-size="14.00">B</text>
</g>
<!-- Node1&#45;&#45;Node2 -->
<g id="edge6" class="edge"><title>Node1&#45;&#45;Node2</title>
<path fill="none" stroke="black" d="M54,-90C59.9766,-90 65.9531,-90 71.9297,-90"/>
</g>
<!-- Node3 -->
<g id="node4" class="node"><title>Node3</title>
<ellipse fill="none" stroke="black" cx="171" cy="-90" rx="27" ry="18"/>
<text text-anchor="middle" x="171" y="-85.8" font-family="Helvetica,sans-Serif" font-size="14.00">C</text>
</g>
<!-- Node1&#45;&#45;Node3 -->
<g id="edge7" class="edge"><title>Node1&#45;&#45;Node3</title>
<path fill="none" stroke="black" d="M41.217,-105.568C49.3696,-113.319 60.2933,-121.894 72,-126 94.6471,-133.944 103.353,-133.944 126,-126 137.707,-121.894 148.63,-113.319 156.783,-105.568"/>
</g>
<!-- Node4 -->
<g id="node5" class="node"><title>Node4</title>
<ellipse fill="none" stroke="black" cx="243" cy="-90" rx="27" ry="18"/>
<text text-anchor="middle" x="243" y="-85.8" font-family="Helvetica,sans-Serif" font-size="14.00">D</text>
</g>
<!-- Node1&#45;&#45;Node4 -->
<g id="edge11" class="edge"><title>Node1&#45;&#45;Node4</title>
<path fill="none" stroke="black" d="M41.217,-105.568C49.3696,-113.319 60.2933,-121.894 72,-126 124.843,-144.536 145.157,-144.536 198,-126 209.707,-121.894 220.63,-113.319 228.783,-105.568"/>
</g>
<!-- Node5 -->
<g id="node6" class="node"><title>Node5</title>
<ellipse fill="none" stroke="black" cx="315" cy="-90" rx="27" ry="18"/>
<text text-anchor="middle" x="315" y="-85.8" font-family="Helvetica,sans-Serif" font-size="14.00">E</text>
</g>
<!-- Node1&#45;&#45;Node5 -->
<g id="edge12" class="edge"><title>Node1&#45;&#45;Node5</title>
<path fill="none" stroke="black" d="M41.217,-105.568C49.3696,-113.319 60.2933,-121.894 72,-126 113.52,-140.564 228.48,-140.564 270,-126 281.707,-121.894 292.63,-113.319 300.783,-105.568"/>
</g>
<!-- Node2&#45;&#45;Clock -->
<g id="edge2" class="edge"><title>Node2&#45;&#45;Clock</title>
<path fill="none" stroke="black" d="M113.57,-74.8345C125.815,-62.9295 143.261,-45.9681 155.706,-33.8693"/>
</g>
<!-- Node2&#45;&#45;Node3 -->
<g id="edge8" class="edge"><title>Node2&#45;&#45;Node3</title>
<path fill="none" stroke="black" d="M126,-90C131.977,-90 137.953,-90 143.93,-90"/>
</g>
<!-- Node2&#45;&#45;Node4 -->
<g id="edge13" class="edge"><title>Node2&#45;&#45;Node4</title>
<path fill="none" stroke="black" d="M113.217,-105.568C121.37,-113.319 132.293,-121.894 144,-126 166.647,-133.944 175.353,-133.944 198,-126 209.707,-121.894 220.63,-113.319 228.783,-105.568"/>
</g>
<!-- Node2&#45;&#45;Node5 -->
<g id="edge14" class="edge"><title>Node2&#45;&#45;Node5</title>
<path fill="none" stroke="black" d="M113.217,-105.568C121.37,-113.319 132.293,-121.894 144,-126 196.843,-144.536 217.157,-144.536 270,-126 281.707,-121.894 292.63,-113.319 300.783,-105.568"/>
</g>
<!-- Node3&#45;&#45;Clock -->
<g id="edge3" class="edge"><title>Node3&#45;&#45;Clock</title>
<path fill="none" stroke="black" d="M171,-71.6966C171,-60.8463 171,-46.9167 171,-36.1043"/>
</g>
<!-- Node3&#45;&#45;Node4 -->
<g id="edge9" class="edge"><title>Node3&#45;&#45;Node4</title>
<path fill="none" stroke="black" d="M198,-90C203.977,-90 209.953,-90 215.93,-90"/>
</g>
<!-- Node3&#45;&#45;Node5 -->
<g id="edge10" class="edge"><title>Node3&#45;&#45;Node5</title>
<path fill="none" stroke="black" d="M185.217,-105.568C193.37,-113.319 204.293,-121.894 216,-126 238.647,-133.944 247.353,-133.944 270,-126 281.707,-121.894 292.63,-113.319 300.783,-105.568"/>
</g>
<!-- Node4&#45;&#45;Clock -->
<g id="edge4" class="edge"><title>Node4&#45;&#45;Clock</title>
<path fill="none" stroke="black" d="M228.43,-74.8345C216.185,-62.9295 198.739,-45.9681 186.294,-33.8693"/>
</g>
<!-- Node4&#45;&#45;Node5 -->
<g id="edge15" class="edge"><title>Node4&#45;&#45;Node5</title>
<path fill="none" stroke="black" d="M270,-90C275.977,-90 281.953,-90 287.93,-90"/>
</g>
<!-- Node5&#45;&#45;Clock -->
<g id="edge5" class="edge"><title>Node5&#45;&#45;Clock</title>
<path fill="none" stroke="black" d="M293.752,-78.6713C267.309,-65.8169 222.283,-43.9292 194.733,-30.537"/>
</g>
</g>
</svg>
